<svg xmlns="http://www.w3.org/2000/svg" viewBox="0 0 49.2 100"><defs><style>.prefix__prefix__b{fill:#f2f2f2}</style></defs><g opacity=".5"><path class="prefix__prefix__b" d="M29.79 36.93a.57.57 0 1 0-.05 1.13.57.57 0 0 0 .05-1.13M30.4 38a.55.55 0 0 0 0 1.09.55.55 0 0 0 .53-.56A.55.55 0 0 0 30.4 38M31.09 39a.52.52 0 0 0-.47.57.53.53 0 1 0 .47-.57M31.86 40.05a.49.49 0 0 0-.39.59.48.48 0 0 0 .58.39.5.5 0 1 0-.19-1M33 42a.47.47 0 0 0-.26-.91.47.47 0 0 0-.33.58A.47.47 0 0 0 33 42M33.68 42.16a.46.46 0 0 0-.27.59A.48.48 0 0 0 34 43a.46.46 0 0 0 .26-.59.46.46 0 0 0-.59-.27M34.73 43.22a.44.44 0 0 0-.2.58.44.44 0 0 0 .79-.38.45.45 0 0 0-.59-.2M35.89 44.27a.41.41 0 0 0-.14.57.42.42 0 0 0 .58.14.42.42 0 0 0-.44-.71M37.63 46a.4.4 0 1 0-.48-.63.39.39 0 0 0-.08.55.41.41 0 0 0 .56.08M39 46.9a.38.38 0 1 0-.54 0 .37.37 0 0 0 .54 0M40 47.37a.36.36 0 0 0 0 .51.37.37 0 0 0 .52 0 .36.36 0 1 0-.55-.47M41.62 48.37a.35.35 0 1 0 .57.39.33.33 0 0 0-.09-.48.34.34 0 0 0-.48.09M34.72 39.89a.53.53 0 0 0-.69.27.52.52 0 0 0 .26.69.53.53 0 1 0 .43-1M35.53 40.69a.5.5 0 0 0-.66.26.5.5 0 1 0 .66-.26M36.39 41.49a.48.48 0 0 0-.38.88.48.48 0 1 0 .38-.88M37.55 42.89a.45.45 0 1 0-.61.24.46.46 0 0 0 .61-.24M37.93 43.88a.44.44 0 1 0-.2-.58.43.43 0 0 0 .2.58M39.54 44.45a.42.42 0 1 0-.56.18.42.42 0 0 0 .56-.18M40.46 44.69a.4.4 0 0 0-.54.17.41.41 0 0 0 .16.54.4.4 0 0 0 .54-.17.39.39 0 0 0-.16-.54M41.11 45.64a.37.37 0 0 0 .13.52.38.38 0 0 0 .53-.14.39.39 0 0 0-.14-.52.38.38 0 0 0-.52.14M42.35 46.43a.36.36 0 1 0 .5-.11.36.36 0 0 0-.5.11M43.66 47.22a.36.36 0 0 0 .07.49.37.37 0 0 0 .5-.08.35.35 0 0 0-.08-.49.37.37 0 0 0-.49.08M37.32 39.57a.52.52 0 0 0-.4 1 .52.52 0 0 0 .68-.28.5.5 0 0 0-.28-.67M38.2 40.35a.49.49 0 0 0-.64.27.49.49 0 1 0 .64-.27M38.52 41.4a.46.46 0 0 0 .26.61.47.47 0 0 0 .36-.87.48.48 0 0 0-.62.26M39.79 42.76a.45.45 0 0 0 .59-.24.46.46 0 0 0-.25-.59.45.45 0 0 0-.58.24.44.44 0 0 0 .24.59M40.86 43.52a.43.43 0 1 0-.23-.56.43.43 0 0 0 .23.56M42.52 44.07a.42.42 0 0 0-.2-.54.41.41 0 1 0 .2.54M43.5 44.35a.38.38 0 1 0 .19.51.38.38 0 0 0-.19-.51M44.26 45.33a.36.36 0 0 0 .16.49.35.35 0 0 0 .49-.16.36.36 0 1 0-.65-.33M45.73 46.61a.37.37 0 0 0 .48-.13.36.36 0 0 0-.14-.48.33.33 0 0 0-.47.13.35.35 0 0 0 .13.48M39.28 38.92a.52.52 0 0 0-.38.65.54.54 0 0 0 .66.39.56.56 0 0 0 .38-.66.53.53 0 0 0-.66-.38M40.15 39.65a.52.52 0 1 0 .29 1 .52.52 0 0 0-.29-1M41.07 40.39a.49.49 0 1 0 .3.93.49.49 0 0 0 .32-.62.49.49 0 0 0-.62-.31M42.05 41.12a.47.47 0 1 0 .59.29.46.46 0 0 0-.59-.29M43.08 41.85a.44.44 0 0 0-.26.58.44.44 0 0 0 .57.25.44.44 0 1 0-.31-.83M44.16 42.59a.42.42 0 0 0-.24.55.43.43 0 0 0 .79-.32.42.42 0 0 0-.55-.23M45.3 43.32a.4.4 0 0 0-.21.53.4.4 0 0 0 .53.2.39.39 0 0 0 .2-.52.4.4 0 0 0-.52-.21M46.81 44.74a.37.37 0 0 0 .19-.49.39.39 0 0 0-.5-.19.38.38 0 0 0-.19.5.38.38 0 0 0 .5.18M48.06 45.44a.35.35 0 0 0 .16-.47.35.35 0 0 0-.64.3.38.38 0 0 0 .48.17" transform="translate(-25.4)"/><path class="prefix__prefix__b" d="M74.53,74.4a.89.89,0,0,0,0-.58.92.92,0,0,0-.07-.63.83.83,0,0,0-.08-.67.85.85,0,0,0-.12-.74.8.8,0,0,0-.15-.77.78.78,0,0,0-.18-.81.76.76,0,0,0-.21-.84.73.73,0,0,0-.26-.86.71.71,0,0,0-.31-.9l0,0a.69.69,0,0,0-.38-.9h0s0,0,0-.07a.67.67,0,0,0-.42-.85h-.05a.41.41,0,0,0,.07-.15.65.65,0,0,0-.45-.79h-.1a.79.79,0,0,0,.09-.23.62.62,0,0,0-.49-.72h-.19a.54.54,0,0,0,.15-.3.59.59,0,0,0-1.18-.15.6.6,0,0,0,.53.67h.11a.62.62,0,0,0-.14.28.6.6,0,0,0,.48.72s0,0,0,0a.66.66,0,0,0-.09.19.64.64,0,0,0,.44.79s-.06.07-.07.12a.65.65,0,0,0,.36.81.43.43,0,0,0,0,.07.69.69,0,0,0,.28.84h0a.7.7,0,0,0,.22.87.75.75,0,0,0,.15.85.75.75,0,0,0,.13.81.76.76,0,0,0,.08.77.8.8,0,0,0,0,.74.83.83,0,0,0,0,.69.86.86,0,0,0,0,.63s0,.08,0,.11a1,1,0,0,0-.17-.33.89.89,0,0,0-.1-1h0a.87.87,0,0,0-.13-1h0a.84.84,0,0,0-.17-1l0,0a.82.82,0,0,0-.19-.92l-.06,0a.78.78,0,0,0-.22-.89l-.07,0a.75.75,0,0,0-.24-.86s-.06,0-.1,0a.74.74,0,0,0-.26-.84l-.12,0a.72.72,0,0,0-.28-.81.59.59,0,0,0-.16-.06.67.67,0,0,0-.28-.78.7.7,0,0,0-.2-.08.67.67,0,0,0-.29-.75.75.75,0,0,0-.24-.08A.63.63,0,0,0,69.1,63a.67.67,0,0,0-.28-.06.6.6,0,0,0-.3-.73.58.58,0,0,0-.34-.06.58.58,0,0,0-.29-.73.62.62,0,0,0-.4,0,.56.56,0,0,0-.79-.72.18.18,0,0,0,0-.07.54.54,0,0,0-.27-.72.56.56,0,0,0-.73.28.54.54,0,0,0,.75.7.18.18,0,0,0,0,.07.57.57,0,0,0,.27.76.67.67,0,0,0,.37,0,.58.58,0,0,0,.28.78.5.5,0,0,0,.29,0,.6.6,0,0,0,.29.77.55.55,0,0,0,.24.07.61.61,0,0,0,.3.76.42.42,0,0,0,.19.06A.65.65,0,0,0,69,65a.88.88,0,0,0,.15,0,.68.68,0,0,0,.28.8l.11,0a.7.7,0,0,0,.27.82l.08,0a.71.71,0,0,0,.25.84l0,0a.76.76,0,0,0,.24.87h0a.79.79,0,0,0,.21.9.82.82,0,0,0,.17.9.84.84,0,0,0,.14.93.87.87,0,0,0,.09,1,.86.86,0,0,0-.12.44.91.91,0,0,0-.13-.26h0a.87.87,0,0,0-.13-.9s0,0,0,0a.87.87,0,0,0-.16-.87l0,0a.82.82,0,0,0-.19-.84l-.06,0a.79.79,0,0,0-.21-.82.2.2,0,0,0-.08,0,.76.76,0,0,0-.24-.8s-.06,0-.09,0a.74.74,0,0,0-.27-.77.34.34,0,0,0-.12-.06.71.71,0,0,0-.28-.75.51.51,0,0,0-.15-.07.73.73,0,0,0-.3-.73.77.77,0,0,0-.19-.08.69.69,0,0,0-.31-.71.9.9,0,0,0-.23-.08.64.64,0,0,0-.31-.69.74.74,0,0,0-.28-.08.61.61,0,0,0-.32-.68.64.64,0,0,0-.33-.07.6.6,0,0,0-.31-.7.63.63,0,0,0-.38,0,.57.57,0,0,0-.31-.71.59.59,0,0,0-.45,0,.55.55,0,0,0-.28-.73.59.59,0,0,0-.61.1.45.45,0,0,0,.1-.14.52.52,0,0,0-.29-.7.54.54,0,0,0-.71.28.54.54,0,0,0,.86.61.5.5,0,0,0-.1.14.56.56,0,0,0,.29.74.58.58,0,0,0,.41,0,.59.59,0,0,0,.29.77.6.6,0,0,0,.35,0,.59.59,0,0,0,.29.75.61.61,0,0,0,.29.06.62.62,0,0,0,.3.73.68.68,0,0,0,.23.07.64.64,0,0,0,.3.72.59.59,0,0,0,.19,0,.65.65,0,0,0,.29.74.39.39,0,0,0,.14,0,.68.68,0,0,0,.29.75l.09,0a.72.72,0,0,0,.29.77l.06,0a.72.72,0,0,0,.26.78l0,0a.76.76,0,0,0,.24.8h0a.79.79,0,0,0,.21.82.82.82,0,0,0,.17.82.9.9,0,0,0,.13.85.85.85,0,0,0,.1.85.85.85,0,0,0,0,.87.9.9,0,0,0-.08.21.91.91,0,0,0-.17-.34.93.93,0,0,0-.17-.92.88.88,0,0,0-.2-.89.86.86,0,0,0-.25-.87.83.83,0,0,0-.28-.85.81.81,0,0,0-.34-.84.77.77,0,0,0-.37-.81.74.74,0,0,0-.42-.8v0a.74.74,0,0,0-.48-.77s0,0,0,0a.73.73,0,0,0-.52-.74s0,0,0-.06a.7.7,0,0,0-.58-.69.24.24,0,0,0,0-.09.67.67,0,0,0-.62-.64s0-.08,0-.12a.65.65,0,0,0-.66-.61.81.81,0,0,0,0-.16.63.63,0,0,0-.7-.55h0a1.21,1.21,0,0,0,0-.19.62.62,0,0,0-.7-.51.15.15,0,0,0-.07,0,.57.57,0,0,0,0-.26.6.6,0,0,0-.68-.47.41.41,0,0,0-.15.07.62.62,0,0,0,0-.33.59.59,0,0,0-.68-.43.56.56,0,0,0-.42.68.55.55,0,0,0,.67.42l.12-.05a.61.61,0,0,0,0,.33.6.6,0,0,0,.69.47l0,0a.72.72,0,0,0,0,.25.59.59,0,0,0,.66.51.67.67,0,0,0,0,.2.63.63,0,0,0,.62.55.41.41,0,0,0,0,.16.64.64,0,0,0,.58.59.5.5,0,0,0,0,.12.67.67,0,0,0,.53.63s0,.06,0,.09a.7.7,0,0,0,.48.67.43.43,0,0,0,0,0,.74.74,0,0,0,.43.71s0,0,0,0a.74.74,0,0,0,.39.74.78.78,0,0,0,.34.78.78.78,0,0,0,.3.78.79.79,0,0,0,.25.78A.88.88,0,0,0,67,71a.83.83,0,0,0,.18.81.87.87,0,0,0,.14.83.92.92,0,0,0,.11.85.88.88,0,0,0,.07.86.86.86,0,0,0-.11.51v.55a17.4,17.4,0,0,1-34.8,0c0-11.15,9.34-16.56,19.23-22.29l.36-.2c10.51-6.09,22.41-13,22.41-28.3a24.6,24.6,0,1,0-49.2,0v.55a1.77,1.77,0,0,0,.06.44.9.9,0,0,0,.05.58.86.86,0,0,0,.06.63.83.83,0,0,0,.09.67.82.82,0,0,0,.12.74.83.83,0,0,0,.14.77.79.79,0,0,0,.18.81.75.75,0,0,0,.22.84.73.73,0,0,0,.25.86.71.71,0,0,0,.31.9h0a.69.69,0,0,0,.38.91l0,.07a.66.66,0,0,0,.41.85h.05s-.05.09-.07.14a.65.65,0,0,0,.46.79h.1a.88.88,0,0,0-.1.22.63.63,0,0,0,.5.73,1.08,1.08,0,0,0,.18,0,.58.58,0,0,0,.37,1,.6.6,0,0,0,.66-.52.59.59,0,0,0-.51-.66h-.13a.55.55,0,0,0,.15-.28.61.61,0,0,0-.48-.72h-.05a.47.47,0,0,0,.1-.2.65.65,0,0,0-.44-.78l.07-.12a.67.67,0,0,0-.36-.81s0,0,0-.07a.69.69,0,0,0-.28-.84h0a.69.69,0,0,0-.21-.86.75.75,0,0,0-.16-.86.75.75,0,0,0-.12-.8.8.8,0,0,0-.08-.78.87.87,0,0,0,0-.74.85.85,0,0,0,0-.68.83.83,0,0,0,0-.64.45.45,0,0,1,0-.11.75.75,0,0,0,.17.33.89.89,0,0,0,.1,1,.87.87,0,0,0,.14,1h0a.86.86,0,0,0,.17,1l0,0a.8.8,0,0,0,.19.93.05.05,0,0,1,.05,0,.78.78,0,0,0,.22.89l.07,0a.75.75,0,0,0,.24.86s.07,0,.1.05a.73.73,0,0,0,.26.83.52.52,0,0,0,.13.06.7.7,0,0,0,.27.81l.16.07a.65.65,0,0,0,.29.77.77.77,0,0,0,.19.08.64.64,0,0,0,.3.75,1,1,0,0,0,.23.08.64.64,0,0,0,.31.73.58.58,0,0,0,.28.07.63.63,0,0,0,.3.74.8.8,0,0,0,.34.05.58.58,0,0,0,.3.73.54.54,0,0,0,.39,0,.56.56,0,0,0,.29.74.55.55,0,0,0,.5,0s0,0,0,.07a.55.55,0,0,0,.27.72.55.55,0,0,0,.73-.28.54.54,0,0,0-.28-.72.55.55,0,0,0-.47,0l.06-.07a.58.58,0,0,0-.28-.76.64.64,0,0,0-.36,0,.59.59,0,0,0-.28-.78.53.53,0,0,0-.3,0,.62.62,0,0,0-.29-.78.71.71,0,0,0-.24-.06.63.63,0,0,0-.29-.76.47.47,0,0,0-.19-.06A.66.66,0,0,0,31,35a.88.88,0,0,0-.15,0,.68.68,0,0,0-.28-.8l-.11,0a.7.7,0,0,0-.27-.82s0,0-.07,0a.75.75,0,0,0-.25-.85h0a.78.78,0,0,0-.24-.88,0,0,0,0,1,0,0,.78.78,0,0,0-.21-.88.82.82,0,0,0-.18-.91.86.86,0,0,0-.13-.93.87.87,0,0,0-.1-.95.89.89,0,0,0,.12-.45,1.34,1.34,0,0,0,.13.27h0a.89.89,0,0,0,.12.9l0,0a.84.84,0,0,0,.16.87l0,0a.8.8,0,0,0,.19.84.1.1,0,0,0,.05,0,.79.79,0,0,0,.22.82l.07,0a.78.78,0,0,0,.24.79l.1.05a.77.77,0,0,0,.26.78l.12,0a.72.72,0,0,0,.29.75.46.46,0,0,0,.14.07.72.72,0,0,0,.31.73.64.64,0,0,0,.19.08.68.68,0,0,0,.3.71,1,1,0,0,0,.23.08.66.66,0,0,0,.32.69.65.65,0,0,0,.27.08.62.62,0,0,0,.32.68.64.64,0,0,0,.33.07.59.59,0,0,0,.31.69.53.53,0,0,0,.39,0,.58.58,0,0,0,.75.74.56.56,0,0,0,.89.63.55.55,0,0,0-.09.14.52.52,0,0,0,.28.7.54.54,0,0,0,.71-.28.53.53,0,0,0-.29-.71.57.57,0,0,0-.57.1.45.45,0,0,0,.1-.14.57.57,0,0,0-.28-.75.61.61,0,0,0-.42,0,.59.59,0,0,0-.28-.78.61.61,0,0,0-.35,0,.6.6,0,0,0-.3-.75.58.58,0,0,0-.29-.06.62.62,0,0,0-.53-.8.64.64,0,0,0-.3-.72.61.61,0,0,0-.18-.05.66.66,0,0,0-.3-.74.35.35,0,0,0-.13-.05.71.71,0,0,0-.29-.75l-.1,0a.73.73,0,0,0-.28-.77s0,0-.06,0a.75.75,0,0,0-.27-.78l0,0a.76.76,0,0,0-.24-.8h0a.8.8,0,0,0-.21-.82.84.84,0,0,0-.17-.83.84.84,0,0,0-.14-.83.86.86,0,0,0-.09-.86.88.88,0,0,0-.05-.86,1.8,1.8,0,0,0,.08-.21,1,1,0,0,0,.17.34.89.89,0,0,0,.16.9.9.9,0,0,0,.21.9.83.83,0,0,0,.24.87.83.83,0,0,0,.29.85.81.81,0,0,0,.33.84.78.78,0,0,0,.37.81.76.76,0,0,0,.42.8h0a.77.77,0,0,0,.47.78v0a.74.74,0,0,0,.53.74.14.14,0,0,0,0,.06.71.71,0,0,0,.58.69s0,.06,0,.09a.65.65,0,0,0,.62.64.6.6,0,0,0,0,.12.65.65,0,0,0,.67.61.38.38,0,0,0,0,.15.64.64,0,0,0,.7.56h0a.67.67,0,0,0,0,.2.61.61,0,0,0,.69.51.15.15,0,0,0,.07,0,.57.57,0,0,0,0,.26.58.58,0,0,0,.69.46l.15-.06a.62.62,0,0,0,0,.33.56.56,0,1,0,.43-.67l-.13,0a.47.47,0,0,0,0-.33.59.59,0,0,0-.68-.47l0,0a.57.57,0,0,0,0-.26.59.59,0,0,0-.66-.5,1.36,1.36,0,0,0,0-.2.64.64,0,0,0-.63-.55.41.41,0,0,0,0-.16.64.64,0,0,0-.58-.59.42.42,0,0,0,0-.12.67.67,0,0,0-.54-.63.29.29,0,0,0,0-.09.7.7,0,0,0-.48-.67s0,0,0,0a.74.74,0,0,0-.44-.71v0a.73.73,0,0,0-.38-.74.78.78,0,0,0-.35-.78.79.79,0,0,0-.29-.78.84.84,0,0,0-.26-.79A.82.82,0,0,0,33,29a.83.83,0,0,0-.18-.81.88.88,0,0,0-.14-.83.89.89,0,0,0-.1-.85,1,1,0,0,0-.07-.87.88.88,0,0,0,.11-.5V24.6a17.4,17.4,0,0,1,34.8,0c0,11.12-8.77,16.2-18.91,22.08l-.22.12C37.55,53,25.4,60.05,25.4,75.39a24.6,24.6,0,1,0,49.2,0v-.55h0a1,1,0,0,0-.07-.44M29,26c0-.05,0-.1-.08-.14a.67.67,0,0,0,.1-.23,1.66,1.66,0,0,0,.06.16A.54.54,0,0,0,29,26M71,74a.91.91,0,0,0,.07.14,1,1,0,0,0-.1.21s0-.1,0-.14A1.8,1.8,0,0,0,71,74m1.7.23a.52.52,0,0,0-.06-.13,1,1,0,0,0,.11-.29v.06a1.49,1.49,0,0,0-.05.36m-3.46.16a2,2,0,0,0-.1-.21.74.74,0,0,0,0-.14.7.7,0,0,0,.11.23.38.38,0,0,0,0,.12m-42-48.64a1.33,1.33,0,0,1,.06.12,1,1,0,0,0-.1.29.15.15,0,0,1,0-.06.85.85,0,0,0,.05-.35m3.47-.17a.81.81,0,0,0,.1.21l-.05.14a.52.52,0,0,0-.1-.23l.05-.12M71.07,73.14a.8.8,0,0,0-.13.32.71.71,0,0,0-.08-.18h0a1.15,1.15,0,0,0,.07-.36.74.74,0,0,0,.14.22M28.93,26.85a1,1,0,0,0,.12-.32.61.61,0,0,0,.09.18h0a.85.85,0,0,0-.08.35,1,1,0,0,0-.13-.22" transform="translate(-25.4)"/><path class="prefix__prefix__b" d="M70.21 63.07a.57.57 0 0 0 .59-.55.56.56 0 0 0-.54-.59.57.57 0 0 0-.6.53.59.59 0 0 0 .55.61M69.6 62a.55.55 0 0 0 .53-.56.55.55 0 0 0-.56-.53.54.54 0 0 0-.53.56.53.53 0 0 0 .56.53M68.91 61a.53.53 0 0 0 .46-.58A.52.52 0 0 0 68.8 60a.53.53 0 0 0-.47.58.53.53 0 0 0 .58.46M68.14 59.94a.48.48 0 0 0 .39-.58.5.5 0 1 0-1 .18.5.5 0 0 0 .59.4M67 58a.49.49 0 0 0-.33.59A.48.48 0 1 0 67 58M66.32 57.83a.46.46 0 0 0 .26-.59.45.45 0 0 0-.85.32.46.46 0 0 0 .59.27M65.27 56.77a.45.45 0 0 0 .19-.59.43.43 0 0 0-.58-.19.42.42 0 0 0-.2.58.44.44 0 0 0 .59.2M64.11 55.72a.42.42 0 0 0-.44-.71.42.42 0 0 0-.14.57.43.43 0 0 0 .58.14M62.36 54a.41.41 0 0 0-.07.56.4.4 0 0 0 .56.07.39.39 0 0 0 .07-.55.4.4 0 0 0-.56-.08M61 53.09a.36.36 0 0 0 0 .53.39.39 0 0 0 .54 0 .38.38 0 0 0 0-.54.37.37 0 0 0-.53 0M60 52.62a.37.37 0 0 0-.56-.47.35.35 0 0 0 0 .5.37.37 0 0 0 .52 0M58.38 51.62a.35.35 0 0 0-.09-.49.36.36 0 0 0-.49.1.34.34 0 0 0 .09.48.35.35 0 0 0 .49-.09M65.28 60.1a.53.53 0 0 0 .69-.27.52.52 0 1 0-.69.27" transform="translate(-25.4)"/><path class="prefix__prefix__b" d="M64.47 59.3a.51.51 0 1 0-.26-.66.5.5 0 0 0 .26.66M63.6 58.5a.49.49 0 0 0 .63-.25.48.48 0 0 0-.88-.39.49.49 0 0 0 .25.64M62.44 57.1a.45.45 0 0 0 .23.6.46.46 0 1 0 .38-.84.46.46 0 0 0-.61.24M62.06 56.11a.45.45 0 0 0-.59.21.44.44 0 0 0 .21.58.45.45 0 0 0 .59-.21.44.44 0 0 0-.21-.58M60.45 55.54a.42.42 0 1 0 .75.37.42.42 0 0 0-.18-.56.43.43 0 0 0-.57.19M59.53 55.3a.42.42 0 0 0 .55-.16.4.4 0 1 0-.71-.38.39.39 0 0 0 .16.54M58.89 54.35a.38.38 0 1 0-.66-.38.38.38 0 0 0 .66.38M57.64 53.57a.37.37 0 0 0-.11-.51.36.36 0 0 0-.39.61.37.37 0 0 0 .5-.1M56.34 52.77a.35.35 0 0 0-.09-.49.34.34 0 0 0-.48.08.35.35 0 0 0 .07.49.36.36 0 0 0 .5-.08M62.67 60.42a.52.52 0 1 0 .4-1 .52.52 0 0 0-.68.28.52.52 0 0 0 .28.67M61.79 59.64a.5.5 0 0 0 .65-.27.49.49 0 0 0-.27-.64.48.48 0 0 0-.64.27.49.49 0 0 0 .26.64M61.48 58.59a.48.48 0 0 0-.88-.36.48.48 0 0 0 .26.62.48.48 0 0 0 .62-.26M60.21 57.23a.44.44 0 0 0-.59.24.46.46 0 0 0 .24.59.46.46 0 0 0 .59-.25.45.45 0 0 0-.24-.58M59.14 56.47a.43.43 0 1 0 .22.57.43.43 0 0 0-.22-.57M57.47 55.92a.4.4 0 0 0 .2.53.41.41 0 1 0-.2-.53M56.49 55.64a.4.4 0 0 0 .52-.18.38.38 0 0 0-.19-.51.37.37 0 0 0-.51.18.38.38 0 0 0 .18.51M55.74 54.66a.39.39 0 0 0-.16-.5.37.37 0 0 0-.49.16.37.37 0 1 0 .65.34M54.27 53.38a.35.35 0 0 0-.47.13.34.34 0 0 0 .12.48.35.35 0 0 0 .48-.13.37.37 0 0 0-.13-.48M60.71 61.07a.53.53 0 0 0 .39-.65.55.55 0 0 0-.66-.39.54.54 0 0 0-.38.66.52.52 0 0 0 .65.38M59.85 60.34a.52.52 0 0 0-.29-1 .52.52 0 0 0 .29 1M58.93 59.6a.49.49 0 1 0-.62-.31.48.48 0 0 0 .62.31M58 58.87a.47.47 0 1 0-.6-.29.48.48 0 0 0 .6.29M56.92 58.14a.45.45 0 0 0 .26-.58.44.44 0 0 0-.57-.25.43.43 0 0 0-.26.57.45.45 0 0 0 .57.26M55.84 57.4a.43.43 0 0 0 .23-.55.42.42 0 0 0-.55-.23.42.42 0 1 0 .32.78M54.69 56.67a.4.4 0 1 0-.52-.21.4.4 0 0 0 .52.21M53.18 55.25a.37.37 0 0 0-.18.49.38.38 0 1 0 .69-.31.39.39 0 0 0-.51-.18M51.94 54.55a.33.33 0 0 0-.16.46.34.34 0 1 0 .62-.29.34.34 0 0 0-.46-.17" transform="translate(-25.4)"/></g></svg>