<svg xmlns="http://www.w3.org/2000/svg" viewBox="0 0 168.98 226.37"><defs><style>@keyframes spin{0%{transform:rotate(0deg)}10%,30%{transform:rotate(10deg)}20%{transform:rotate(-10deg)}40%{transform:rotate(0)}}.prefix__prefix__b,.prefix__prefix__e{fill:none;stroke:#fff}.prefix__prefix__b{stroke-miterlimit:10;stroke-width:.5px}.prefix__prefix__c,.prefix__prefix__d{fill:#fff}.prefix__prefix__e{stroke-linecap:round;stroke-linejoin:round;stroke-width:.7px}</style></defs><path fill="transparent" d="M0.35 0H168.62V226.37H0.35z"/><g style="animation:spin 2s ease-in-out infinite;transform-origin:50% 50%;will-change:transform"><path class="prefix__prefix__b" d="M117.62,211.78s-.13-157-.13-162.51a5.21,5.21,0,0,0-4.76-5.34h-27L62.3,44a5.21,5.21,0,0,0-4.75,5.35c0,5.55.13,162.51.13,162.51s.83,3.71,28.7,3.68h2.56C116.8,215.49,117.62,211.78,117.62,211.78Z" transform="translate(.35)"/><path class="prefix__prefix__b" d="M58.87 212.76v4.66s.8 5.15 27.56 5.13h2.45c26.76 0 27.55-5.18 27.55-5.18v-4.66M117.46 7.42s-.83-1.73-28.7-1.7H86.21c-27.87 0-28.69 1.75-28.69 1.75l0 36.5h5.94l54 0z" transform="translate(.35)"/><path class="prefix__prefix__c" d="M78.14 141.16a.28.28 0 1 0 .26.29A.28.28 0 0 0 78.14 141.16zM78.43 141.66a.25.25 0 0 0-.25.26.26.26 0 0 0 .27.26.27.27 0 0 0 .25-.27A.25.25 0 0 0 78.43 141.66zM78.76 142.16a.25.25 0 1 0 .28.22A.25.25 0 0 0 78.76 142.16zM79.13 142.66a.24.24 0 0 0-.19.28.25.25 0 0 0 .28.19.24.24 0 0 0-.09-.47zM79.67 143.6a.23.23 0 0 0 .16-.28.23.23 0 1 0-.44.13A.22.22 0 0 0 79.67 143.6zM79.88 144a.22.22 0 0 0 .28.13.23.23 0 0 0 .13-.29.23.23 0 0 0-.29-.12A.21.21 0 0 0 79.88 144zM80.51 144.17a.21.21 0 1 0 .28.1A.22.22 0 0 0 80.51 144.17zM81.06 144.68a.2.2 0 0 0 .21.33.2.2 0 0 0 .07-.27A.21.21 0 0 0 81.06 144.68zM81.9 145.48a.2.2 0 0 0 0-.27.19.19 0 1 0 0 .27zM82.32 145.67a.18.18 0 0 0 0 .25.18.18 0 0 0 .26 0 .18.18 0 0 0 0-.25A.19.19 0 0 0 82.32 145.67zM83 146.16a.16.16 0 0 0 0 .24.18.18 0 0 0 .25 0 .17.17 0 0 0 0-.24A.16.16 0 0 0 83 146.16zM83.8 146.64a.17.17 0 1 0 .28.18.17.17 0 0 0 0-.23A.18.18 0 0 0 83.8 146.64zM80.17 142.71a.24.24 0 0 0 .13.33.25.25 0 0 0 .33-.13.25.25 0 0 0-.13-.33A.26.26 0 0 0 80.17 142.71zM80.57 143.09a.25.25 0 0 0 .13.32.24.24 0 0 0 .19-.45A.25.25 0 0 0 80.57 143.09zM81 143.46a.23.23 0 1 0 .42.19.22.22 0 0 0-.12-.3A.23.23 0 0 0 81 143.46zM81.86 144a.22.22 0 0 0-.11-.29.22.22 0 0 0-.29.11.22.22 0 1 0 .4.18zM81.94 144.21a.21.21 0 0 0 .1.28.22.22 0 0 0 .28-.1.21.21 0 0 0-.38-.18zM82.81 144.76a.2.2 0 1 0-.27.09A.2.2 0 0 0 82.81 144.76zM83.25 144.88A.19.19 0 0 0 83 145a.18.18 0 0 0 .08.25.19.19 0 0 0 .26-.07A.19.19 0 0 0 83.25 144.88zM83.56 145.33a.19.19 0 0 0 .06.25.19.19 0 0 0 .26-.07.18.18 0 0 0-.32-.18zM84.16 145.71a.17.17 0 0 0 0 .24.18.18 0 0 0 .24-.06.18.18 0 0 0 0-.24A.17.17 0 0 0 84.16 145.71zM84.78 146.09a.17.17 0 0 0 0 .23.17.17 0 0 0 .23 0 .16.16 0 0 0 0-.23A.17.17 0 0 0 84.78 146.09zM81.42 142.56a.25.25 0 0 0 .13.32.25.25 0 1 0 .19-.46A.25.25 0 0 0 81.42 142.56zM82.17 142.8a.24.24 0 0 0-.31.13.24.24 0 0 0 .44.18A.25.25 0 0 0 82.17 142.8zM82.32 143.3a.23.23 0 0 0 .42.17.22.22 0 0 0-.13-.29A.22.22 0 0 0 82.32 143.3zM83.21 143.84a.22.22 0 1 0-.28.11A.21.21 0 0 0 83.21 143.84zM83.71 144.21a.21.21 0 1 0-.27.1A.2.2 0 0 0 83.71 144.21zM84.24 144.58a.2.2 0 0 0-.1-.26.2.2 0 0 0-.26.1.2.2 0 1 0 .36.16zM84.46 144.8a.18.18 0 0 0 .33.16.19.19 0 0 0-.08-.25A.18.18 0 0 0 84.46 144.8zM85.14 145.41a.17.17 0 0 0 .24-.07.19.19 0 0 0-.07-.24.18.18 0 0 0-.24.08A.17.17 0 0 0 85.14 145.41zM85.77 145.79a.17.17 0 0 0 .23-.06.17.17 0 0 0-.06-.23.16.16 0 0 0-.23.06A.17.17 0 0 0 85.77 145.79zM82.68 142.11a.26.26 0 0 0-.18.32.25.25 0 0 0 .31.18.27.27 0 0 0 .19-.31A.27.27 0 0 0 82.68 142.11zM83.1 142.46a.25.25 0 0 0 .14.48.25.25 0 0 0-.14-.48zM83.54 142.82a.22.22 0 0 0-.15.29.23.23 0 0 0 .29.15.22.22 0 0 0 .15-.29A.22.22 0 0 0 83.54 142.82zM84 143.17a.22.22 0 0 0-.14.28.23.23 0 0 0 .29.14.23.23 0 0 0 .13-.29A.21.21 0 0 0 84 143.17zM84.5 143.52a.21.21 0 0 0 .15.39.21.21 0 1 0-.15-.39zM85 143.87a.19.19 0 0 0-.11.26.2.2 0 1 0 .37-.15A.19.19 0 0 0 85 143.87zM85.57 144.22a.18.18 0 0 0-.1.25.2.2 0 0 0 .25.1.2.2 0 0 0 .1-.25A.19.19 0 0 0 85.57 144.22zM86.29 144.9a.18.18 0 1 0-.24-.09A.18.18 0 0 0 86.29 144.9zM86.88 145.23A.16.16 0 0 0 87 145a.16.16 0 0 0-.22-.08.17.17 0 0 0 .14.3z" transform="translate(.35)"/><path class="prefix__prefix__c" d="M99.6,159.29h0a.51.51,0,0,0,0-.21.54.54,0,0,0,0-.28.45.45,0,0,0,0-.3.36.36,0,0,0,0-.32.39.39,0,0,0,0-.35.41.41,0,0,0-.07-.37.4.4,0,0,0-.09-.39.37.37,0,0,0-.1-.4.35.35,0,0,0-.13-.41.34.34,0,0,0-.14-.43h0a.32.32,0,0,0-.18-.43h0s0,0,0,0a.31.31,0,0,0-.2-.4h0l0-.06a.31.31,0,0,0-.22-.38h0a.37.37,0,0,0,0-.11.3.3,0,0,0-.23-.35H98a.25.25,0,0,0,.06-.14.28.28,0,1,0-.56-.07.28.28,0,0,0,.25.31s0,0,.06,0a.31.31,0,0,0-.07.14.29.29,0,0,0,.23.34h0a.41.41,0,0,0,0,.09.31.31,0,0,0,.21.38l0,.06a.33.33,0,0,0,.17.39s0,0,0,0a.32.32,0,0,0,.13.4h0a.33.33,0,0,0,.1.42.35.35,0,0,0,.08.41.35.35,0,0,0,0,.38,18.93,18.93,0,0,1,.07.73.42.42,0,0,0,0,.33.44.44,0,0,0,0,.3.13.13,0,0,1,0,.06.35.35,0,0,0-.08-.16.42.42,0,0,0,0-.5h0a.41.41,0,0,0-.07-.48h0a.41.41,0,0,0-.08-.46h0a.42.42,0,0,0-.09-.45h0a.37.37,0,0,0-.1-.43l0,0a.38.38,0,0,0-.12-.41l-.05,0a.33.33,0,0,0-.12-.39s0,0-.06,0a.36.36,0,0,0-.14-.39l-.07,0a.32.32,0,0,0-.14-.37l-.09,0a.33.33,0,0,0-.15-.36l-.11,0a.3.3,0,0,0-.15-.35.28.28,0,0,0-.13,0,.29.29,0,0,0-.14-.35.51.51,0,0,0-.17,0,.28.28,0,0,0-.14-.35.31.31,0,0,0-.19,0,.28.28,0,0,0-.13-.36.29.29,0,0,0-.24,0s0,0,0,0a.27.27,0,0,0-.13-.35.28.28,0,0,0-.35.14.25.25,0,0,0,.13.34.26.26,0,0,0,.23,0l0,0a.27.27,0,0,0,.14.36.25.25,0,0,0,.17,0,.29.29,0,0,0,.13.38.26.26,0,0,0,.15,0,.29.29,0,0,0,.13.37.27.27,0,0,0,.12,0,.31.31,0,0,0,.14.37l.09,0a.32.32,0,0,0,.14.37l.07,0a.33.33,0,0,0,.13.39h.06a.34.34,0,0,0,.12.4h0a.34.34,0,0,0,.12.4h0a.38.38,0,0,0,.12.42h0a.36.36,0,0,0,.1.42.36.36,0,0,0,.08.43.4.4,0,0,0,.07.45.39.39,0,0,0,0,.45.56.56,0,0,0-.06.21.34.34,0,0,0-.06-.12h0a.39.39,0,0,0-.06-.42h0a.41.41,0,0,0-.08-.42,0,0,0,0,0,0,0,.41.41,0,0,0-.09-.41l0,0a.38.38,0,0,0-.1-.39l0,0a.37.37,0,0,0-.11-.38l0,0a.35.35,0,0,0-.13-.37l-.05,0a.36.36,0,0,0-.14-.36s0,0-.07,0a.35.35,0,0,0-.15-.35l-.09,0a.3.3,0,0,0-.15-.34l-.1,0a.32.32,0,0,0-.16-.33l-.13,0a.3.3,0,0,0-.15-.33.3.3,0,0,0-.16,0,.28.28,0,0,0-.33-.36.27.27,0,0,0-.15-.34.31.31,0,0,0-.21,0,.27.27,0,0,0-.14-.35.28.28,0,0,0-.29,0,.18.18,0,0,0,.05-.07.26.26,0,0,0-.48-.2.26.26,0,0,0,.41.29l0,.07a.27.27,0,0,0,.14.36.28.28,0,0,0,.2,0,.29.29,0,0,0,.13.37.26.26,0,0,0,.17,0,.29.29,0,0,0,.14.36.36.36,0,0,0,.14,0,.3.3,0,0,0,.15.35.2.2,0,0,0,.11,0,.32.32,0,0,0,.14.35l.09,0a.33.33,0,0,0,.14.35l.07,0a.31.31,0,0,0,.14.35l0,0a.36.36,0,0,0,.14.37h0a.35.35,0,0,0,.12.38h0a.36.36,0,0,0,.12.38h0a.39.39,0,0,0,.1.4.41.41,0,0,0,.09.39.41.41,0,0,0,.06.4.46.46,0,0,0,0,.41.45.45,0,0,0,0,.42,1,1,0,0,0,0,.1.3.3,0,0,0-.08-.16.41.41,0,0,0-.08-.44.42.42,0,0,0-.09-.43.44.44,0,0,0-.12-.42.38.38,0,0,0-.14-.4.39.39,0,0,0-.16-.4.36.36,0,0,0-.18-.39.36.36,0,0,0-.2-.38h0a.36.36,0,0,0-.22-.37v0a.35.35,0,0,0-.25-.35v0a.32.32,0,0,0-.27-.33v0a.32.32,0,0,0-.3-.31s0,0,0-.06a.32.32,0,0,0-.32-.29.16.16,0,0,0,0-.07.3.3,0,0,0-.33-.27h0a.38.38,0,0,0,0-.1.3.3,0,0,0-.34-.24h0a.49.49,0,0,0,0-.12.29.29,0,0,0-.33-.22.13.13,0,0,0-.08,0,.3.3,0,0,0,0-.16.27.27,0,1,0-.52.12.26.26,0,0,0,.32.2l.06,0a.27.27,0,0,0,0,.15.29.29,0,0,0,.33.23h0a.25.25,0,0,0,0,.12.28.28,0,0,0,.32.24.34.34,0,0,0,0,.1.3.3,0,0,0,.3.26s0,.05,0,.08a.31.31,0,0,0,.28.28.14.14,0,0,0,0,.06.33.33,0,0,0,.26.3s0,0,0,0a.34.34,0,0,0,.23.32v0a.35.35,0,0,0,.2.35h0a.36.36,0,0,0,.18.35.38.38,0,0,0,.17.37.36.36,0,0,0,.14.37,16.47,16.47,0,0,1,.23.76.44.44,0,0,0,.08.4.42.42,0,0,0,.07.39,8.53,8.53,0,0,1,.08.82.52.52,0,0,0,0,.24v.27a8.33,8.33,0,0,1-16.65,0c0-5.34,4.46-7.93,9.2-10.67l.17-.1c5-2.92,10.72-6.22,10.71-13.55a11.78,11.78,0,1,0-23.55,0v.26h0a1,1,0,0,0,0,.21.45.45,0,0,0,0,.28.4.4,0,0,0,0,.3.4.4,0,0,0,0,.32.37.37,0,0,0,.06.35.36.36,0,0,0,.07.37.37.37,0,0,0,.08.39.36.36,0,0,0,.11.4.34.34,0,0,0,.12.41.33.33,0,0,0,.15.43h0a.34.34,0,0,0,.18.44l0,0a.31.31,0,0,0,.2.4h0a.16.16,0,0,0,0,.07.31.31,0,0,0,.22.37h0a.31.31,0,0,0,0,.1.3.3,0,0,0,.24.35h.09a.19.19,0,0,0-.07.14.28.28,0,0,0,.25.32.28.28,0,0,0,.07-.56h-.07a.25.25,0,0,0,.08-.14.3.3,0,0,0-.24-.34h0a.31.31,0,0,0,0-.1.31.31,0,0,0-.21-.37l0-.06a.32.32,0,0,0-.17-.39l0,0a.33.33,0,0,0-.14-.4h0a.33.33,0,0,0-.1-.42.35.35,0,0,0-.07-.41,7.74,7.74,0,0,1-.1-.75.38.38,0,0,0,0-.36.33.33,0,0,0,0-.32.42.42,0,0,0,0-.31.07.07,0,0,1,0-.05.4.4,0,0,0,.08.16.42.42,0,0,0,0,.49.41.41,0,0,0,.07.48h0a.4.4,0,0,0,.09.46,0,0,0,0,0,0,0,.42.42,0,0,0,.09.45h0a.37.37,0,0,0,.1.43l0,0a.36.36,0,0,0,.11.41l0,0a.36.36,0,0,0,.13.4l.06,0A.34.34,0,0,0,78,140l.07,0a.32.32,0,0,0,.14.37l.09,0a.33.33,0,0,0,.15.36l.11,0a.31.31,0,0,0,.14.35l.14,0a.3.3,0,0,0,.15.35.22.22,0,0,0,.16,0,.29.29,0,0,0,.14.36.25.25,0,0,0,.19,0,.28.28,0,0,0,.13.36.31.31,0,0,0,.25,0l0,0a.26.26,0,0,0,.13.35.26.26,0,0,0,.35-.14.26.26,0,0,0-.13-.34.23.23,0,0,0-.23,0l0,0a.26.26,0,0,0-.31-.37.28.28,0,0,0-.13-.38.36.36,0,0,0-.14,0,.31.31,0,0,0-.14-.37.27.27,0,0,0-.12,0,.31.31,0,0,0-.14-.37l-.09,0a.3.3,0,0,0-.14-.37l-.07,0a.32.32,0,0,0-.13-.38l0,0a.37.37,0,0,0-.13-.4h0a.35.35,0,0,0-.12-.4h0a.38.38,0,0,0-.12-.42h0a.4.4,0,0,0-.1-.43.38.38,0,0,0-.09-.43,20.71,20.71,0,0,1-.11-.9.43.43,0,0,0,.06-.22.31.31,0,0,0,.06.13h0a.4.4,0,0,0,.06.43h0a.4.4,0,0,0,.08.42l0,0a.38.38,0,0,0,.09.4l0,0a.37.37,0,0,0,.11.39l0,0a.37.37,0,0,0,.12.38l0,0a.37.37,0,0,0,.13.37l.06,0a.33.33,0,0,0,.13.36l.07,0A.34.34,0,0,0,79,140l.09,0a.32.32,0,0,0,.15.34l.11,0a.3.3,0,0,0,.15.33l.13,0a.3.3,0,0,0,.15.33.3.3,0,0,0,.16,0,.29.29,0,0,0,.15.34.28.28,0,0,1,.33.36.3.3,0,0,0,.21,0,.27.27,0,0,0,.43.3.16.16,0,0,0,0,.07.24.24,0,0,0,.13.33.26.26,0,1,0,.2-.47.25.25,0,0,0-.27,0l0-.07a.27.27,0,0,0-.14-.36.34.34,0,0,0-.2,0,.27.27,0,0,0-.14-.37.23.23,0,0,0-.16,0,.29.29,0,0,0-.14-.36.34.34,0,0,0-.14,0,.29.29,0,0,0-.15-.35.19.19,0,0,0-.1,0,.31.31,0,0,0-.15-.35l-.09,0a.32.32,0,0,0-.14-.35l-.07,0a.32.32,0,0,0-.13-.36l0,0a.35.35,0,0,0-.13-.37h0a.37.37,0,0,0-.13-.38h0a.37.37,0,0,0-.11-.38h0a.4.4,0,0,0-.1-.4.38.38,0,0,0-.09-.39.37.37,0,0,0-.06-.4,17,17,0,0,1-.07-.82.49.49,0,0,0,0-.11.38.38,0,0,0,.08.17.44.44,0,0,0,.08.43.42.42,0,0,0,.1.43.41.41,0,0,0,.11.42.38.38,0,0,0,.14.4.39.39,0,0,0,.16.4.36.36,0,0,0,.18.39.37.37,0,0,0,.2.39h0a.36.36,0,0,0,.23.37v0a.35.35,0,0,0,.25.35v0a.32.32,0,0,0,.27.33v0a.31.31,0,0,0,.29.31v.06A.32.32,0,0,0,81,141a.17.17,0,0,0,0,.07.3.3,0,0,0,.33.27h0a.38.38,0,0,0,0,.1.29.29,0,0,0,.34.24h0a.24.24,0,0,0,0,.12A.27.27,0,0,0,82,142l.07,0a.3.3,0,0,0,0,.16.27.27,0,0,0,.53-.12.28.28,0,0,0-.33-.2l-.06,0a.25.25,0,0,0,0-.17.29.29,0,0,0-.33-.22h0a.24.24,0,0,0,0-.12.28.28,0,0,0-.32-.24.17.17,0,0,0,0-.1.29.29,0,0,0-.3-.26.17.17,0,0,0,0-.07.31.31,0,0,0-.28-.29.14.14,0,0,0,0-.06.33.33,0,0,0-.26-.3v0a.33.33,0,0,0-.23-.32s0,0,0,0a.33.33,0,0,0-.21-.33h0a.36.36,0,0,0-.18-.36.38.38,0,0,0-.16-.37.39.39,0,0,0-.15-.37.4.4,0,0,0-.12-.38.38.38,0,0,0-.11-.38.41.41,0,0,0-.08-.4.42.42,0,0,0-.07-.39,8.53,8.53,0,0,1-.08-.82.52.52,0,0,0,0-.24v-.26a8.33,8.33,0,1,1,16.65,0c0,5.32-4.18,7.76-9,10.57l-.1.06c-5.13,3-10.94,6.35-10.94,13.69a11.78,11.78,0,1,0,23.55,0ZM76.92,136v0a.51.51,0,0,0,0-.17s0,0,0,.06A.57.57,0,0,0,76.92,136Zm.84-.27,0,.07a.36.36,0,0,0,0,.11.16.16,0,0,0,0-.07A.27.27,0,0,0,77.76,135.75Zm0,.7a.41.41,0,0,0-.07-.11.47.47,0,0,0,.06-.15s0,.06,0,.09h0A.47.47,0,0,0,77.79,136.45Zm.83-.55a.47.47,0,0,0-.05-.1l0-.06a.42.42,0,0,0,0,.1A.14.14,0,0,1,78.62,135.9ZM97,159.08s0-.07-.05-.1,0,0,0-.06l0,.11S97.05,159.07,97,159.08Zm.77-.54a.47.47,0,0,0,0-.17.24.24,0,0,0,.06.11.47.47,0,0,0-.06.15.2.2,0,0,0,0-.08Zm.06.52s0-.05,0-.06a.69.69,0,0,0,0-.1l0,.06A.31.31,0,0,0,97.87,159.06Zm.83-.06s0,0,0-.06a.58.58,0,0,0,0-.14v0A.35.35,0,0,0,98.7,159Z" transform="translate(.35)"/><path class="prefix__prefix__c" d="M97.49,153.66a.28.28,0,1,0,0-.55.28.28,0,1,0,0,.55Z" transform="translate(.35)"/><path class="prefix__prefix__c" d="M97.2 153.16a.25.25 0 0 0 .25-.26.26.26 0 0 0-.26-.26.26.26 0 1 0 0 .52zM96.87 152.67a.25.25 0 0 0 .22-.28.23.23 0 0 0-.27-.22.25.25 0 0 0-.23.27A.26.26 0 0 0 96.87 152.67zM96.5 152.16a.23.23 0 0 0 .19-.28.25.25 0 0 0-.28-.19.24.24 0 1 0 .09.47zM96 151.22a.22.22 0 0 0-.15.28.22.22 0 1 0 .43-.13A.22.22 0 0 0 96 151.22zM95.75 150.87a.22.22 0 0 0-.28-.13.22.22 0 0 0 .16.41A.21.21 0 0 0 95.75 150.87zM95.13 150.65a.21.21 0 0 0-.19-.38.22.22 0 0 0-.1.28A.23.23 0 0 0 95.13 150.65zM94.57 150.14a.2.2 0 1 0-.21-.33.19.19 0 0 0-.06.27A.2.2 0 0 0 94.57 150.14zM93.74 149.34a.19.19 0 1 0 .23.3.18.18 0 0 0 0-.26A.19.19 0 0 0 93.74 149.34zM93.31 149.15a.18.18 0 1 0-.25-.26.18.18 0 0 0 0 .25A.19.19 0 0 0 93.31 149.15zM92.6 148.66a.17.17 0 0 0 0-.24.18.18 0 0 0-.25 0 .17.17 0 0 0 0 .24A.18.18 0 0 0 92.6 148.66zM91.83 148.18a.17.17 0 0 0-.28-.18.17.17 0 1 0 .28.18zM95.46 152.11a.24.24 0 0 0-.13-.33.25.25 0 1 0 .13.33zM95.06 151.73a.24.24 0 0 0-.12-.32.25.25 0 0 0-.32.13.25.25 0 0 0 .12.32A.25.25 0 0 0 95.06 151.73zM94.63 151.36a.23.23 0 0 0-.12-.31.23.23 0 0 0-.3.12.24.24 0 0 0 .12.31A.24.24 0 0 0 94.63 151.36zM93.78 150.8a.21.21 0 0 0 .1.29.22.22 0 0 0 .29-.11.21.21 0 0 0-.1-.29A.22.22 0 0 0 93.78 150.8zM93.69 150.61a.21.21 0 0 0-.1-.28.22.22 0 0 0-.28.1.21.21 0 0 0 .1.28A.2.2 0 0 0 93.69 150.61zM92.82 150.06a.2.2 0 1 0 .27-.09A.2.2 0 0 0 92.82 150.06zM92.38 149.94a.19.19 0 0 0 .26-.07.19.19 0 0 0-.08-.26.19.19 0 0 0-.26.08A.18.18 0 0 0 92.38 149.94zM92.07 149.49a.18.18 0 0 0-.06-.25.18.18 0 0 0-.25.07.19.19 0 0 0 .06.25A.18.18 0 0 0 92.07 149.49zM91.48 149.12a.18.18 0 0 0-.06-.25.17.17 0 0 0-.24.06.18.18 0 0 0 0 .24A.19.19 0 0 0 91.48 149.12zM90.85 148.74a.17.17 0 0 0 0-.24.16.16 0 0 0-.23 0 .15.15 0 0 0 0 .23A.16.16 0 0 0 90.85 148.74zM94.21 152.26a.25.25 0 0 0-.14-.32.25.25 0 0 0-.32.13.26.26 0 0 0 .14.33A.25.25 0 0 0 94.21 152.26zM93.77 151.89a.23.23 0 0 0-.12-.31.23.23 0 0 0-.31.13.23.23 0 0 0 .12.31A.23.23 0 0 0 93.77 151.89zM93.31 151.52a.22.22 0 0 0-.12-.29.22.22 0 1 0-.17.41A.21.21 0 0 0 93.31 151.52zM92.42 151a.22.22 0 0 0 .12.28.21.21 0 0 0 .28-.11.21.21 0 0 0-.11-.28A.22.22 0 0 0 92.42 151zM91.92 150.61a.21.21 0 0 0 .11.27.2.2 0 1 0 .16-.37A.2.2 0 0 0 91.92 150.61zM91.4 150.24a.19.19 0 1 0 .35.16.19.19 0 0 0-.1-.26A.19.19 0 0 0 91.4 150.24zM91.17 150a.17.17 0 0 0-.08-.24.18.18 0 0 0-.25.08.19.19 0 0 0 .08.25A.18.18 0 0 0 91.17 150zM90.57 149.64a.2.2 0 0 0-.08-.24.18.18 0 1 0-.16.32A.19.19 0 0 0 90.57 149.64zM89.86 149a.18.18 0 0 0-.23.06.18.18 0 0 0 .07.23.15.15 0 0 0 .22-.06A.16.16 0 0 0 89.86 149zM93 152.71a.26.26 0 0 0 .18-.32.25.25 0 0 0-.31-.18.26.26 0 0 0-.18.32A.25.25 0 0 0 93 152.71zM92.53 152.36a.24.24 0 0 0 .17-.31.26.26 0 0 0-.31-.17.25.25 0 0 0-.16.31A.25.25 0 0 0 92.53 152.36zM92.09 152a.24.24 0 0 0-.14-.45.22.22 0 0 0-.15.29A.23.23 0 0 0 92.09 152zM91.63 151.66a.23.23 0 0 0-.15-.43.23.23 0 0 0-.14.29A.24.24 0 0 0 91.63 151.66zM91.13 151.3a.21.21 0 1 0-.15-.39.2.2 0 0 0-.12.27A.21.21 0 0 0 91.13 151.3zM90.61 151a.19.19 0 0 0 .11-.26.2.2 0 0 0-.26-.11.2.2 0 0 0-.11.26A.19.19 0 0 0 90.61 151zM90.07 150.6a.19.19 0 0 0 .1-.25.2.2 0 0 0-.25-.1.18.18 0 0 0-.1.25A.19.19 0 0 0 90.07 150.6zM89.34 149.92a.19.19 0 0 0-.09.24.19.19 0 0 0 .24.09.18.18 0 0 0-.15-.33zM88.75 149.59a.17.17 0 0 0 .14.3.17.17 0 1 0-.14-.3z" transform="translate(.35)"/></g><path class="prefix__prefix__d" d="M147.53 171.86L145.55 178.29 152.1 176.79 147.53 171.86z"/><path class="prefix__prefix__e" d="M141.88,76.29A65,65,0,0,1,148.77,175" transform="translate(.35)"/><path class="prefix__prefix__d" d="M141.08 79.65L138.24 73.55 144.94 74.14 141.08 79.65z"/><path class="prefix__prefix__e" d="M19.48,175a65,65,0,0,1,6-98.06" transform="translate(.35)"/><path class="prefix__prefix__d" d="M21.43 171.84L23.41 178.26 16.85 176.77 21.43 171.84zM27.07 80.29L29.82 74.15 23.13 74.84 27.07 80.29z"/></svg>