<svg xmlns="http://www.w3.org/2000/svg" viewBox="0 0 82.16 200.5"><defs><style>@keyframes fill{0%{transform:scaleY(.1)}}.prefix__prefix__a{fill:#f7f3f7}.prefix__prefix__b{fill:none;stroke:#fff;stroke-miterlimit:10;stroke-width:.5px}.prefix__prefix__h,.prefix__prefix__i{fill:#000}</style></defs><path class="prefix__prefix__a" style="will-change:transform;transform-origin:100% 96%;animation:fill 3s ease infinite" d="M36.73 97.96H81.91999999999999V189.95999999999998H36.73z"/><path class="prefix__prefix__a" d="M81.67,191.9s-2.85,3-21.78,3c-21.32,0-23.41-3-23.41-3v-2.3l45.19-.33Z" transform="translate(.25 .25)"/><path class="prefix__prefix__b" d="M36.48,69.38V191.9s.62,2.8,21.63,2.8H60c21,0,21.63-2.8,21.63-2.8V69.38" transform="translate(.25 .25)"/><path class="prefix__prefix__b" d="M37.37,192.6v3.51S38,200,58.15,200H60c20.17,0,20.77-3.89,20.77-3.89V192.6" transform="translate(.25 .25)"/><path d="M60.27,40c0-2.77-.08-10.82-.08-13.3,0-5.89-1.74-9.54-8.1-9.54h-5.3v3.31l4.68-.6c4,0,6.05,1.39,6.05,6.14,0,2.53.08,11.77.08,14,0,4.33-2.05,8.68,1.37,8.68C62.13,48.68,60.27,44.07,60.27,40Z" transform="translate(.25 .25)" stroke="#fff" stroke-linejoin="round" stroke-linecap="round" stroke-width=".5" fill="none"/><path d="M81.67,69.38c0-4-10.24-6-10.24-9.87v-7H46.55v7c0,3.64-10.09,6.14-10.09,9.87Z" transform="translate(.25 .25)" stroke-linejoin="round" stroke-width=".5" stroke="#fff" fill="none"/><path class="prefix__prefix__b" d="M46.8 59.76L71.68 59.76"/><path transform="rotate(-45 28.345 36.66)" stroke="#fff" fill="#fff" stroke-linejoin="round" stroke-linecap="round" stroke-width=".5" d="M-2.32 27.59H58.16V46.08H-2.32z"/><path stroke="#000" stroke-linejoin="round" stroke-width=".5" fill="none" d="M16.18 62.15L3.1 49.07"/><path transform="rotate(-.27 106.218 -48.557)" stroke="#fff" fill="#fff" stroke-linejoin="round" stroke-width=".5" d="M42.74 0.04H61.230000000000004V8.86H42.74z"/><path class="prefix__prefix__h" d="M27.82 30.71a.12.12 0 0 0 0-.17.13.13 0 1 0-.19.17A.13.13 0 0 0 27.82 30.71zM27.77 31a.12.12 0 0 0 0-.17.11.11 0 0 0-.16 0 .1.1 0 0 0 0 .16A.12.12 0 0 0 27.77 31z" transform="translate(.25 .25)"/><path class="prefix__prefix__h" d="M27.73 31.21a.1.1 0 0 0 0-.15.11.11 0 1 0-.14.17A.11.11 0 0 0 27.73 31.21zM27.7 31.49a.11.11 0 0 0 0-.15.11.11 0 0 0-.15 0 .11.11 0 1 0 .18.13zM27.68 31.77a.1.1 0 0 0 0-.14.1.1 0 0 0-.14 0 .1.1 0 1 0 .18.1zM27.67 32.07a.1.1 0 1 0-.13 0A.1.1 0 0 0 27.67 32.07zM27.56 32.44a.09.09 0 1 0-.06-.12A.1.1 0 0 0 27.56 32.44zM27.59 32.77a.08.08 0 0 0 .11-.06.09.09 0 1 0-.11.06zM27.65 33.12a.07.07 0 0 0 .09-.07.08.08 0 0 0-.07-.1.1.1 0 0 0-.1.07A.09.09 0 0 0 27.65 33.12zM27.72 33.48s.08 0 .08-.08a.08.08 0 1 0-.08.08zM27.72 33.79a.08.08 0 0 0 .09.07.08.08 0 0 0 .07-.08.08.08 0 1 0-.16 0zM27.83 34.19a.06.06 0 0 0 .08.06.07.07 0 0 0 .06-.09s0-.06-.08-.06A.07.07 0 0 0 27.83 34.19zM28 31.68a.11.11 0 0 0-.06.15.11.11 0 0 0 .14.07.12.12 0 0 0 .07-.15A.12.12 0 0 0 28 31.68zM28 31.93a.1.1 0 0 0-.06.14.11.11 0 0 0 .14.07.12.12 0 0 0 .06-.14A.11.11 0 0 0 28 31.93zM28 32.19a.09.09 0 0 0-.06.13.1.1 0 0 0 .13.07.12.12 0 0 0 .06-.14A.1.1 0 0 0 28 32.19zM28 32.46a.08.08 0 0 0-.05.12.08.08 0 0 0 .12.06.1.1 0 1 0-.07-.18zM28.07 32.73a.09.09 0 1 0 .12.06A.09.09 0 0 0 28.07 32.73zM28.11 33a.1.1 0 0 0-.06.12.09.09 0 0 0 .12 0 .09.09 0 0 0 .06-.11A.1.1 0 0 0 28.11 33zM28.16 33.3a.09.09 0 0 0-.05.11.08.08 0 1 0 .16 0A.09.09 0 0 0 28.16 33.3zM28.17 33.71a.08.08 0 0 0 .1.06.09.09 0 0 0 .06-.1.07.07 0 0 0-.1-.06A.08.08 0 0 0 28.17 33.71zM28.24 34a.07.07 0 0 0 .09.06.08.08 0 1 0 0-.15A.07.07 0 0 0 28.24 34zM28.31 34.33a.08.08 0 0 0 .15 0 .07.07 0 0 0-.09-.06A.08.08 0 0 0 28.31 34.33zM28.43 32a.11.11 0 1 0 .09.2.11.11 0 0 0 .06-.14A.11.11 0 0 0 28.43 32zM28.45 32.29a.12.12 0 0 0-.06.15.11.11 0 0 0 .14.05.1.1 0 0 0 .06-.14A.12.12 0 0 0 28.45 32.29zM28.43 32.69a.1.1 0 0 0 .13.06.09.09 0 0 0 .05-.13.1.1 0 0 0-.13-.06A.09.09 0 0 0 28.43 32.69zM28.47 33a.09.09 0 0 0 .12.06.1.1 0 0 0 .06-.13.1.1 0 0 0-.13 0A.08.08 0 0 0 28.47 33zM28.57 33.12a.09.09 0 0 0 .06.18.08.08 0 0 0 .05-.12A.08.08 0 0 0 28.57 33.12zM28.62 33.42a.08.08 0 0 0-.05.11.09.09 0 0 0 .16-.06A.08.08 0 0 0 28.62 33.42zM28.68 33.72a.1.1 0 0 0-.05.11.08.08 0 0 0 .11.05.07.07 0 0 0 .05-.1A.09.09 0 0 0 28.68 33.72zM28.71 34.14a.07.07 0 0 0 .1 0 .08.08 0 0 0 .05-.1.09.09 0 0 0-.1-.05S28.69 34.1 28.71 34.14zM28.79 34.46a.08.08 0 0 0 .09.06.09.09 0 0 0 .05-.1.07.07 0 0 0-.09-.05A.07.07 0 0 0 28.79 34.46zM28.82 32.34a.11.11 0 0 0 0 .16.12.12 0 1 0 .12-.2A.11.11 0 0 0 28.82 32.34z" transform="translate(.25 .25)"/><path class="prefix__prefix__h" d="M28.84,32.59a.12.12,0,0,0,.05.15.11.11,0,0,0,.15,0,.12.12,0,0,0,0-.16A.12.12,0,0,0,28.84,32.59Z" transform="translate(.25 .25)"/><path class="prefix__prefix__h" d="M28.88 32.84a.12.12 0 0 0 .05.15.11.11 0 0 0 .14-.05.1.1 0 0 0 0-.14A.11.11 0 0 0 28.88 32.84zM28.93 33.11a.09.09 0 0 0 0 .13.11.11 0 0 0 .14-.05.1.1 0 0 0-.05-.13A.09.09 0 0 0 28.93 33.11zM29 33.38a.09.09 0 0 0 .05.12.1.1 0 0 0 .13 0 .11.11 0 0 0-.05-.13A.1.1 0 0 0 29 33.38zM29 33.66a.08.08 0 0 0 .05.11.09.09 0 0 0 .12 0 .09.09 0 0 0-.17-.07zM29.22 33.9a.08.08 0 0 0-.11 0 .08.08 0 0 0 .05.11.08.08 0 0 0 .11 0A.08.08 0 0 0 29.22 33.9zM29.29 34.19a.08.08 0 0 0-.05.15.07.07 0 0 0 .1 0A.08.08 0 0 0 29.29 34.19zM29.42 34.6a.08.08 0 0 0-.05-.1.07.07 0 0 0-.1 0 .08.08 0 0 0 .05.1A.1.1 0 0 0 29.42 34.6z" transform="translate(.25 .25)"/><path class="prefix__prefix__h" d="M36.58 28A5.34 5.34 0 0 0 29 28l-.08.09-.06.07a.19.19 0 0 0-.08.1.22.22 0 0 0-.09.1.27.27 0 0 0-.09.12.18.18 0 0 0-.09.13.18.18 0 0 0-.1.14.16.16 0 0 0-.09.15.16.16 0 0 0-.1.16.16.16 0 0 0-.09.18.14.14 0 0 0-.09.18h0a.16.16 0 0 0-.08.2h0a.14.14 0 0 0-.07.2h0l0 0a.14.14 0 0 0-.05.19h0l-.05 0a.14.14 0 0 0 0 .19l0 0a.1.1 0 0 0-.07 0 .13.13 0 1 0 .18 0l0 0a.1.1 0 0 0 .07 0 .12.12 0 0 0 0-.18h0a.13.13 0 0 0 .05-.19h0a.14.14 0 0 0 .07-.18h0a.14.14 0 0 0 .08-.17h0a.16.16 0 0 0 .1-.17.14.14 0 0 0 .1-.15.19.19 0 0 0 .11-.15.16.16 0 0 0 .11-.13.15.15 0 0 0 .1-.12.16.16 0 0 0 .1-.11.19.19 0 0 0 .1-.1h0s0 .05 0 .08a.19.19 0 0 0-.14.17h0a.2.2 0 0 0-.13.18h0a.18.18 0 0 0-.12.17h0a.16.16 0 0 0-.11.17v0a.16.16 0 0 0-.1.17h0a.17.17 0 0 0-.09.17s0 0 0 0a.15.15 0 0 0-.09.17 0 0 0 0 0 0 0 .14.14 0 0 0-.08.16s0 0 0 0a.14.14 0 0 0-.07.16s0 0 0 .05a.15.15 0 0 0-.08.16l0 0a.14.14 0 0 0-.07.16l0 .06a.13.13 0 0 0-.06.15A.09.09 0 0 0 28 31a.14.14 0 0 0-.07.16s0 .05.06.07a.13.13 0 0 0-.07.16.11.11 0 0 0 .08.07h0a.13.13 0 0 0-.07.16.12.12 0 0 0 .16.06.12.12 0 0 0 .07-.15.18.18 0 0 0-.08-.07h0a.12.12 0 0 0 .07-.16.1.1 0 0 0 0-.06.13.13 0 0 0 .08-.16.21.21 0 0 0 0-.06.12.12 0 0 0 .07-.16.05.05 0 0 0 0 0 .14.14 0 0 0 .07-.17l0 0a.14.14 0 0 0 .07-.17 0 0 0 0 0 0 0 .14.14 0 0 0 .08-.16v0a.14.14 0 0 0 .08-.16v0a.16.16 0 0 0 .09-.17h0a.16.16 0 0 0 .1-.17h0a.16.16 0 0 0 .1-.17.18.18 0 0 0 .12-.16.22.22 0 0 0 .12-.17A.18.18 0 0 0 29.1 29a.2.2 0 0 0 .09-.05l0 .06h0a.16.16 0 0 0-.12.15h0a.19.19 0 0 0-.11.16h0a.18.18 0 0 0-.1.16h0a.19.19 0 0 0-.09.16v0a.16.16 0 0 0-.08.16 0 0 0 0 0 0 0 .15.15 0 0 0-.08.16 0 0 0 0 0 0 0 .17.17 0 0 0-.07.16s0 0 0 0a.15.15 0 0 0-.07.15s0 0 0 0a.17.17 0 0 0-.06.16s0 0 0 .05a.14.14 0 0 0-.06.15l0 .06a.12.12 0 0 0-.05.15s0 0 0 .06a.13.13 0 0 0-.06.15.18.18 0 0 0 .05.07.14.14 0 0 0-.06.16.16.16 0 0 0 .07.07.11.11 0 0 0-.07.15.11.11 0 0 0 .1.08h0a.12.12 0 0 0-.07.15.12.12 0 0 0 .16.06.11.11 0 0 0 .06-.15.12.12 0 0 0-.1-.07h0a.12.12 0 0 0 .07-.15.16.16 0 0 0-.07-.07.13.13 0 0 0 .08-.16.1.1 0 0 0-.05-.06.14.14 0 0 0 .07-.16l0-.05a.14.14 0 0 0 .06-.16s0 0 0-.05a.13.13 0 0 0 .06-.15.05.05 0 0 0 0 0 .16.16 0 0 0 .07-.16l0 0a.15.15 0 0 0 .08-.16s0 0 0 0a.16.16 0 0 0 .07-.16h0a.18.18 0 0 0 .08-.16h0a.15.15 0 0 0 .09-.16h0a.17.17 0 0 0 .09-.16.18.18 0 0 0 .1-.15 40257001730887.86 40257001730887.86 0 0 1 .22-.3.17.17 0 0 0 .13-.14l.05 0a.11.11 0 0 0 0 .08.2.2 0 0 0-.12.16 29890029414942.3 29890029414942.3 0 0 1-.2.34.18.18 0 0 0-.08.18.18.18 0 0 0-.08.17.18.18 0 0 0-.07.19.16.16 0 0 0-.06.18h0a.17.17 0 0 0-.05.19h0a.14.14 0 0 0 0 .19h0a.16.16 0 0 0 0 .2h0a.14.14 0 0 0 0 .19l0 0a.13.13 0 0 0 0 .19l0 0a.14.14 0 0 0 0 .2h0s0 0 0 0a.13.13 0 0 0 0 .18h0l0 0a.13.13 0 0 0 0 .18h0a.12.12 0 0 0-.05.05.12.12 0 0 0 0 .17.13.13 0 0 0 .16 0 .12.12 0 0 0 0-.17h0L29 32a.13.13 0 0 0 0-.18h0l0 0a.13.13 0 0 0 0-.18l0 0a.14.14 0 0 0 0-.18l0 0a.13.13 0 0 0 0-.18h0a.15.15 0 0 0 0-.18h0a.17.17 0 0 0 0-.18h0a.17.17 0 0 0 0-.18h0a.15.15 0 0 0 .06-.17.16.16 0 0 0 .06-.17.19.19 0 0 0 .08-.17.18.18 0 0 0 .08-.16.19.19 0 0 0 .09-.15.16.16 0 0 0 .09-.15.19.19 0 0 0 .11-.15.21.21 0 0 0 .11-.15.22.22 0 0 0 .13-.14s.07 0 .09-.06l.08-.09a3.77 3.77 0 0 1 5.33 5.33c-1.7 1.7-3.82 1.14-6.27.49l-.05 0c-2.6-.69-5.53-1.47-7.88.88a5.32 5.32 0 0 0 7.53 7.53l.08-.08h0a.21.21 0 0 0 .06-.08A.16.16 0 0 0 29 43a.22.22 0 0 0 .09-.1.27.27 0 0 0 .09-.12.18.18 0 0 0 .09-.13.18.18 0 0 0 .1-.14.2.2 0 0 0 .1-.15.15.15 0 0 0 .09-.16 4.52 4.52 0 0 0 .18-.36h0a.16.16 0 0 0 .08-.2h0a.15.15 0 0 0 .06-.2h0a.14.14 0 0 0 .05-.19 0 0 0 0 0 0 0l0 0a.13.13 0 0 0 0-.19l0 0a.08.08 0 0 0 .07 0 .13.13 0 1 0-.16-.2.14.14 0 0 0 0 .18l0 0a.1.1 0 0 0-.07 0 .13.13 0 0 0 0 .18h0a.13.13 0 0 0-.05.19h0a.14.14 0 0 0-.07.18h0a.14.14 0 0 0-.08.17h0a.17.17 0 0 0-.11.17.17.17 0 0 0-.1.16.16.16 0 0 0-.11.14.17.17 0 0 0-.1.13.15.15 0 0 0-.11.12.18.18 0 0 0-.1.11.19.19 0 0 0-.1.1h0s0-.05 0-.08a.18.18 0 0 0 .14-.17h0a.2.2 0 0 0 .13-.18h0a.17.17 0 0 0 .12-.17h0a.16.16 0 0 0 .11-.17v0a.14.14 0 0 0 .1-.16v0a.17.17 0 0 0 .09-.17v0a.15.15 0 0 0 .08-.17 0 0 0 0 0 0 0 .17.17 0 0 0 .09-.17l0 0a.15.15 0 0 0 .08-.16l0 0a.17.17 0 0 0 .07-.16s0 0 0-.05a.14.14 0 0 0 .07-.16l0-.06a.13.13 0 0 0 .06-.15.09.09 0 0 0 0-.06.14.14 0 0 0 .07-.16l-.06-.07a.12.12 0 0 0 .07-.15.11.11 0 0 0-.08-.08h0a.12.12 0 0 0 .07-.15.12.12 0 0 0-.16-.07.12.12 0 0 0-.07.15.18.18 0 0 0 .08.07h0a.12.12 0 0 0-.07.16.1.1 0 0 0 0 .06.13.13 0 0 0-.08.16l0 .06a.13.13 0 0 0-.07.16.05.05 0 0 0 0 0 .15.15 0 0 0-.07.17l0 0a.13.13 0 0 0-.07.16v0a.15.15 0 0 0-.08.16s0 0 0 0a.14.14 0 0 0-.08.16v0a.17.17 0 0 0-.09.17h0a.16.16 0 0 0-.1.17h0a.17.17 0 0 0-.1.17.18.18 0 0 0-.12.17.19.19 0 0 0-.12.16.18.18 0 0 0-.13.16.14.14 0 0 0-.08 0 .14.14 0 0 0 0-.06h0a.19.19 0 0 0 .12-.15h0a.19.19 0 0 0 .11-.16h0a.18.18 0 0 0 .1-.16h0a.19.19 0 0 0 .09-.16v0a.16.16 0 0 0 .08-.16v0a.15.15 0 0 0 .08-.16s0 0 0 0A.14.14 0 0 0 29.3 41s0 0 0 0a.15.15 0 0 0 .07-.15s0 0 0-.05a.13.13 0 0 0 .06-.15s0 0 0 0a.13.13 0 0 0 .06-.15l0-.06a.12.12 0 0 0 .05-.15s0 0 0-.06a.13.13 0 0 0 .06-.16.15.15 0 0 0-.05-.06.12.12 0 0 0 .06-.16.13.13 0 0 0-.06-.07.11.11 0 0 0 .06-.15.11.11 0 0 0-.1-.08h0a.12.12 0 0 0 .07-.15.12.12 0 0 0-.16-.06.11.11 0 0 0-.06.15.12.12 0 0 0 .1.07h0a.11.11 0 0 0-.06.15.09.09 0 0 0 .06.07.13.13 0 0 0-.08.16.1.1 0 0 0 .05.06.14.14 0 0 0-.07.16.1.1 0 0 0 0 0 .14.14 0 0 0-.07.16.13.13 0 0 0 0 0 .12.12 0 0 0-.07.15l0 0a.16.16 0 0 0-.07.16l0 0a.13.13 0 0 0-.07.16v0a.16.16 0 0 0-.07.16 0 0 0 0 0 0 0 .15.15 0 0 0-.08.16h0a.17.17 0 0 0-.09.16h0a.19.19 0 0 0-.09.16.18.18 0 0 0-.1.15.21.21 0 0 0-.11.15.19.19 0 0 0-.11.15.19.19 0 0 0-.13.14l-.05 0a.13.13 0 0 0 0-.08.2.2 0 0 0 .12-.16 12454178922891.74 12454178922891.74 0 0 1 .2-.34.21.21 0 0 0 .09-.18 62583237997557.33 62583237997557.33 0 0 1 .14-.36.16.16 0 0 0 .06-.18h0a.15.15 0 0 0 .05-.19h0a.14.14 0 0 0 0-.19h0a.15.15 0 0 0 0-.19l0 0a.14.14 0 0 0 0-.19l0 0a.14.14 0 0 0 0-.19l0 0a.14.14 0 0 0 0-.2h0l0 0a.14.14 0 0 0 0-.19h0l0 0a.14.14 0 0 0 0-.18h0a.12.12 0 0 0 .05 0A.13.13 0 0 0 29 39a.14.14 0 0 0-.17 0 .12.12 0 0 0 0 .17h0a.1.1 0 0 0 0 0 .13.13 0 0 0 0 .18h0l-.05 0a.13.13 0 0 0 0 .18l0 0a.14.14 0 0 0 0 .18l0 0a.14.14 0 0 0 0 .18h0a.15.15 0 0 0 0 .18h0a.15.15 0 0 0 0 .18h0a.16.16 0 0 0-.05.18h0a28532314006867.39 28532314006867.39 0 0 1-.12.34.19.19 0 0 0-.08.17.18.18 0 0 0-.08.16.19.19 0 0 0-.09.15.2.2 0 0 0-.09.16.19.19 0 0 0-.11.14.21.21 0 0 0-.11.15.2.2 0 0 0-.13.14s-.07 0-.09.06l-.08.09a3.77 3.77 0 0 1-5.33-5.33c1.71-1.71 4-1.11 6.36-.47l.08 0c2.54.67 5.42 1.44 7.77-.9A5.35 5.35 0 0 0 36.58 28zm-7.44.5l-.06 0h0s.05 0 .06 0S29.15 28.46 29.14 28.48zm.15.39h0s-.05 0-.06 0 0 0 0-.06l.07 0S29.29 28.86 29.29 28.87zm.14-.15l-.05 0v0l.05 0zm.26.28h0a.17.17 0 0 1 0-.05h0zm-1 13.8l.06 0h0l-.06 0zm-.15-.4h0l.07 0a.14.14 0 0 0 0 .06.07.07 0 0 0-.06 0S28.55 42.41 28.55 42.4zm-.13.15l0 0s0 0 0 0l-.05 0zm-.27-.28h0a.08.08 0 0 0 0 .05h0zM30 40.56a.12.12 0 0 0 0 .17.14.14 0 0 0 .18 0 .12.12 0 0 0 0-.17A.12.12 0 0 0 30 40.56zM30.07 40.31a.12.12 0 0 0 0 .17.11.11 0 0 0 .16 0 .1.1 0 0 0 0-.16A.12.12 0 0 0 30.07 40.31zM30.12 40.06a.1.1 0 0 0 0 .15.11.11 0 1 0 .14-.17A.1.1 0 0 0 30.12 40.06zM30.15 39.78a.1.1 0 0 0 0 .15.1.1 0 0 0 .15 0 .11.11 0 0 0-.18-.12zM30.17 39.5a.11.11 0 0 0 0 .14.11.11 0 0 0 .15 0 .12.12 0 0 0 0-.14A.1.1 0 0 0 30.17 39.5zM30.17 39.2a.1.1 0 0 0 0 .13.09.09 0 0 0 .13 0 .1.1 0 0 0-.05-.13A.1.1 0 0 0 30.17 39.2zM30.28 38.83a.09.09 0 0 0-.12.06.1.1 0 0 0 .06.12.09.09 0 0 0 .06-.18zM30.25 38.5a.09.09 0 0 0-.11.06.09.09 0 0 0 .07.11.09.09 0 0 0 .1-.06A.08.08 0 0 0 30.25 38.5zM30.19 38.15a.08.08 0 0 0-.09.07.08.08 0 0 0 .07.1.1.1 0 0 0 .1-.08S30.24 38.16 30.19 38.15zM30.13 37.79a.08.08 0 0 0-.09.08.08.08 0 0 0 .16 0A.07.07 0 0 0 30.13 37.79z" transform="translate(.25 .25)"/><path class="prefix__prefix__h" d="M30.12 37.48a.08.08 0 0 0-.08-.07.08.08 0 0 0-.08.08.09.09 0 0 0 .09.08A.09.09 0 0 0 30.12 37.48zM30 37.08a.08.08 0 0 0-.09-.06.07.07 0 0 0-.06.09s.05.06.09.06A.09.09 0 0 0 30 37.08zM29.86 39.59a.12.12 0 0 0 .07-.15.11.11 0 0 0-.15-.06.11.11 0 0 0-.07.14A.12.12 0 0 0 29.86 39.59zM29.85 39.33a.09.09 0 0 0 .06-.13.1.1 0 0 0-.14-.06.1.1 0 0 0-.06.13A.1.1 0 0 0 29.85 39.33z" transform="translate(.25 .25)"/><path class="prefix__prefix__h" d="M29.89 39a.09.09 0 0 0-.13-.06.1.1 0 0 0-.06.13.11.11 0 0 0 .14.06A.09.09 0 0 0 29.89 39zM29.81 38.81a.08.08 0 0 0 .05-.12.09.09 0 0 0-.12-.06.1.1 0 1 0 .07.18zM29.77 38.54a.09.09 0 1 0-.12-.06A.09.09 0 0 0 29.77 38.54zM29.73 38.26a.1.1 0 0 0 .06-.12.1.1 0 0 0-.12 0 .08.08 0 0 0-.05.11A.09.09 0 0 0 29.73 38.26zM29.68 38a.09.09 0 0 0 .05-.11.08.08 0 1 0-.16 0A.09.09 0 0 0 29.68 38zM29.67 37.56a.08.08 0 0 0-.1-.06.1.1 0 0 0-.06.1.09.09 0 0 0 .11.06A.07.07 0 0 0 29.67 37.56zM29.6 37.26a.07.07 0 0 0-.09-.06.08.08 0 0 0-.06.09.08.08 0 0 0 .1.06A.07.07 0 0 0 29.6 37.26zM29.53 36.94a.08.08 0 0 0-.15 0 .07.07 0 0 0 .09.06A.08.08 0 0 0 29.53 36.94zM29.41 39.23a.1.1 0 0 0 .06-.14.11.11 0 0 0-.15-.06.12.12 0 0 0-.06.14A.11.11 0 0 0 29.41 39.23zM29.39 39a.12.12 0 0 0 .06-.14.11.11 0 0 0-.14-.06.1.1 0 0 0-.06.14A.12.12 0 0 0 29.39 39zM29.36 38.71a.1.1 0 0 0 .06-.13.11.11 0 0 0-.14-.06.09.09 0 0 0-.05.13A.1.1 0 0 0 29.36 38.71zM29.32 38.43a.09.09 0 0 0 .06-.12.1.1 0 0 0-.13-.06.1.1 0 0 0-.05.13A.09.09 0 0 0 29.32 38.43zM29.28 38.15a.1.1 0 0 0-.07-.18.09.09 0 0 0-.05.12A.09.09 0 0 0 29.28 38.15zM29.22 37.85a.09.09 0 0 0-.06-.16.08.08 0 0 0-.05.11A.08.08 0 0 0 29.22 37.85zM29.16 37.55a.1.1 0 0 0 .05-.11.08.08 0 0 0-.11 0 .08.08 0 0 0-.05.1A.09.09 0 0 0 29.16 37.55zM29.14 37.13s-.06-.07-.1-.05a.07.07 0 0 0-.05.1.07.07 0 0 0 .09 0A.08.08 0 0 0 29.14 37.13zM29.06 36.81s-.06-.07-.1-.05a.07.07 0 0 0 0 .14A.08.08 0 0 0 29.06 36.81zM29 38.93a.12.12 0 0 0-.05-.16.13.13 0 0 0-.16 0 .12.12 0 0 0 .21.12z" transform="translate(.25 .25)"/><path class="prefix__prefix__h" d="M29 38.68a.11.11 0 1 0-.2-.1.11.11 0 0 0 0 .15A.12.12 0 0 0 29 38.68zM29 38.43a.11.11 0 0 0-.05-.15.11.11 0 0 0-.14 0 .1.1 0 0 0 .05.14A.1.1 0 0 0 29 38.43zM28.92 38.16a.1.1 0 0 0-.05-.13.11.11 0 0 0-.14 0 .1.1 0 0 0 .05.13A.1.1 0 0 0 28.92 38.16zM28.86 37.89a.09.09 0 0 0-.05-.12.08.08 0 0 0-.12 0 .11.11 0 0 0 0 .13A.1.1 0 0 0 28.86 37.89zM28.8 37.61a.08.08 0 0 0-.05-.11.09.09 0 0 0-.12 0 .09.09 0 0 0 .05.12A.08.08 0 0 0 28.8 37.61zM28.62 37.38a.09.09 0 0 0 .11-.05.08.08 0 0 0-.05-.11.08.08 0 0 0-.11 0A.1.1 0 0 0 28.62 37.38zM28.65 37a.07.07 0 0 0 0-.1.07.07 0 0 0-.1 0 .09.09 0 0 0 .05.11A.07.07 0 0 0 28.65 37zM28.42 36.68a.07.07 0 0 0 0 .09.07.07 0 0 0 .1 0 .08.08 0 0 0-.05-.1A.09.09 0 0 0 28.42 36.68z" transform="translate(.25 .25)"/><path class="prefix__prefix__i" d="M51.7 140.33a.19.19 0 0 0-.21.19.2.2 0 0 0 .19.22.22.22 0 0 0 .22-.2.2.2 0 0 0-.2-.21M51.92 140.7a.2.2 0 1 0 .2.19.19.19 0 0 0-.2-.19M52.17 141.08a.19.19 0 0 0-.17.2.19.19 0 0 0 .21.17.19.19 0 1 0 0-.37M52.45 141.46a.17.17 0 0 0-.14.21.18.18 0 0 0 .21.14.18.18 0 0 0 .14-.21.17.17 0 0 0-.21-.14M52.85 142.17A.18.18 0 0 0 53 142a.16.16 0 0 0-.21-.11.17.17 0 0 0-.12.21.18.18 0 0 0 .21.12M53.1 142.22a.16.16 0 0 0-.09.21.17.17 0 0 0 .21.1.17.17 0 0 0 .1-.22.18.18 0 0 0-.22-.09M53.48 142.6a.16.16 0 0 0-.07.21.16.16 0 1 0 .28-.14.15.15 0 0 0-.21-.07M53.9 143a.15.15 0 0 0 0 .2.14.14 0 0 0 .21 0 .15.15 0 0 0 0-.2.16.16 0 0 0-.21-.05M54.53 143.58a.15.15 0 0 0 0-.2.14.14 0 0 0-.2 0 .12.12 0 0 0 0 .19.14.14 0 0 0 .2 0M55 143.93a.14.14 0 0 0 0-.2.14.14 0 0 0-.2.19.14.14 0 0 0 .2 0M55.39 144.1a.12.12 0 0 0 0 .18.13.13 0 1 0 .17-.2.13.13 0 0 0-.18 0M56 144.46a.12.12 0 0 0 0 .17.13.13 0 0 0 .18 0 .14.14 0 0 0 0-.18.13.13 0 0 0-.17 0M53.48 141.4a.19.19 0 0 0-.25.1.18.18 0 0 0 .1.24.19.19 0 0 0 .25-.09.2.2 0 0 0-.1-.25M53.77 141.69a.18.18 0 0 0-.24.09.18.18 0 0 0 .1.24.19.19 0 0 0 .24-.09.19.19 0 0 0-.1-.24M54.08 142a.17.17 0 0 0-.14.32.17.17 0 0 0 .23-.09.18.18 0 0 0-.09-.23M54.5 142.48a.16.16 0 1 0-.22.09.18.18 0 0 0 .22-.09M54.64 142.84a.17.17 0 0 0 .21-.08.16.16 0 0 0-.08-.21.16.16 0 0 0-.13.29M55.22 143a.14.14 0 0 0-.07-.2.14.14 0 0 0-.2.07.15.15 0 0 0 .06.2.15.15 0 0 0 .21-.07M55.55 143.13a.14.14 0 0 0-.19.06.13.13 0 0 0 0 .19.15.15 0 0 0 .2 0 .15.15 0 0 0-.06-.2M55.78 143.47a.14.14 0 0 0 0 .19.13.13 0 0 0 .19 0 .14.14 0 0 0-.05-.19.14.14 0 0 0-.19.05M56.23 143.76a.13.13 0 1 0 .18 0 .12.12 0 0 0-.18 0M56.7 144a.14.14 0 0 0 0 .18.13.13 0 0 0 .15-.21.15.15 0 0 0-.18 0M54.42 141.28a.2.2 0 0 0-.25.1.18.18 0 0 0 .1.24.19.19 0 1 0 .15-.34M54.73 141.56a.19.19 0 0 0-.23.1.18.18 0 0 0 .1.23.17.17 0 0 0 .23-.09.18.18 0 0 0-.1-.24M54.85 141.94a.17.17 0 0 0 .09.22.17.17 0 0 0 .23-.09.17.17 0 0 0-.1-.22.16.16 0 0 0-.22.09M55.31 142.43a.15.15 0 0 0 .21-.08.16.16 0 0 0-.09-.22.17.17 0 0 0-.21.09.15.15 0 0 0 .09.21M55.69 142.71a.17.17 0 0 0 .21-.08.16.16 0 0 0-.09-.21.17.17 0 0 0-.2.08.17.17 0 0 0 .08.21M56.29 142.91a.15.15 0 0 0-.07-.2.14.14 0 0 0-.19.08.13.13 0 0 0 .07.19.14.14 0 0 0 .19-.07M56.65 143a.14.14 0 0 0-.19.06.15.15 0 0 0 .07.19.14.14 0 0 0 .18-.07.12.12 0 0 0-.06-.18M56.92 143.36a.13.13 0 1 0 .24.12.15.15 0 0 0-.06-.18.13.13 0 0 0-.18.06M57.45 143.82a.13.13 0 0 0 .13-.22.14.14 0 0 0-.18.05.13.13 0 0 0 .05.17M55.13 141.05a.19.19 0 1 0 .09.37.19.19 0 0 0 .14-.24.18.18 0 0 0-.23-.13M55.44 141.31a.19.19 0 0 0-.13.23.19.19 0 0 0 .23.13.19.19 0 0 0 .13-.23.19.19 0 0 0-.23-.13M55.77 141.58a.17.17 0 1 0 .11.33.17.17 0 1 0-.11-.33M56.12 141.84a.17.17 0 0 0-.1.22.18.18 0 0 0 .22.1.17.17 0 0 0 .1-.21.18.18 0 0 0-.22-.11M56.49 142.11a.16.16 0 1 0 .21.09.16.16 0 0 0-.21-.09M56.89 142.37a.16.16 0 0 0-.09.2.16.16 0 0 0 .2.08.15.15 0 0 0-.11-.28M57.3 142.64a.13.13 0 0 0-.08.18.14.14 0 0 0 .19.08.14.14 0 1 0-.11-.26M57.84 143.15a.14.14 0 1 0-.18-.07.14.14 0 0 0 .18.07M58.29 143.4a.13.13 0 0 0 .06-.17.13.13 0 0 0-.17-.06.13.13 0 0 0 .11.23" transform="translate(.25 .25)"/><path class="prefix__prefix__i" d="M67.84,153.85a.3.3,0,0,0,0-.21.32.32,0,0,0,0-.23.26.26,0,0,0,0-.24.29.29,0,0,0,0-.27.32.32,0,0,0,0-.28.29.29,0,0,0-.07-.29.28.28,0,0,0-.07-.3.27.27,0,0,0-.1-.31.25.25,0,0,0-.11-.32h0a.26.26,0,0,0-.14-.33h0s0,0,0,0a.24.24,0,0,0-.14-.31h0s0,0,0,0a.24.24,0,0,0-.16-.29h0a.2.2,0,0,0,0-.08.23.23,0,0,0-.18-.26h-.07a.16.16,0,0,0,0-.11.21.21,0,0,0-.18-.24.22.22,0,0,0-.24.19.22.22,0,0,0,.19.24h0l0,.1a.22.22,0,0,0,.17.27h0a.16.16,0,0,0,0,.07.24.24,0,0,0,.16.28.08.08,0,0,0,0,0,.25.25,0,0,0,.13.3l0,0a.24.24,0,0,0,.1.3h0a.25.25,0,0,0,.08.31.27.27,0,0,0,0,.31,4.5,4.5,0,0,1,.08.57.27.27,0,0,0,0,.26,5.53,5.53,0,0,0,0,.48.08.08,0,0,0,0,0,.34.34,0,0,0-.06-.12.32.32,0,0,0,0-.37h0a.3.3,0,0,0,0-.36h0a.29.29,0,0,0-.05-.34h0a.28.28,0,0,0-.07-.33s0,0,0,0a.3.3,0,0,0-.08-.32h0a.27.27,0,0,0-.09-.31l0,0a.27.27,0,0,0-.1-.3l0,0a.25.25,0,0,0-.1-.29s0,0-.06,0a.24.24,0,0,0-.1-.28l-.07,0a.24.24,0,0,0-.11-.28L66,150a.22.22,0,0,0-.1-.26.23.23,0,0,0-.11,0,.22.22,0,0,0-.11-.26.23.23,0,0,0-.12,0,.2.2,0,0,0-.1-.26.2.2,0,0,0-.15,0,.2.2,0,0,0-.28-.26l0,0a.2.2,0,0,0-.1-.26.19.19,0,0,0-.26.1.2.2,0,0,0,.09.26.23.23,0,0,0,.18,0l0,0a.2.2,0,0,0,.1.27.19.19,0,0,0,.13,0,.2.2,0,0,0,.1.28.2.2,0,0,0,.11,0,.22.22,0,0,0,.1.28.15.15,0,0,0,.09,0,.23.23,0,0,0,.1.28l.07,0a.25.25,0,0,0,.1.28l.06,0a.24.24,0,0,0,.1.29h0a.27.27,0,0,0,.09.3h0a.25.25,0,0,0,.09.3h0a.27.27,0,0,0,.09.31h0a.28.28,0,0,0,.08.32,11.35,11.35,0,0,1,.11.66.29.29,0,0,0,0,.34.33.33,0,0,0,0,.16.2.2,0,0,0,0-.09h0a.31.31,0,0,0,0-.32h0a.3.3,0,0,0,0-.31h0a.26.26,0,0,0-.07-.3s0,0,0,0a.26.26,0,0,0-.07-.29l0,0a.28.28,0,0,0-.09-.29h0a.27.27,0,0,0-.1-.28s0,0,0,0a.26.26,0,0,0-.1-.27l-.06,0a.25.25,0,0,0-.11-.26s0,0-.06,0a.26.26,0,0,0-.12-.26l-.08,0a.23.23,0,0,0-.11-.25.18.18,0,0,0-.1,0,.22.22,0,0,0-.12-.25.24.24,0,0,0-.12,0,.2.2,0,0,0-.11-.25.22.22,0,0,0-.14,0,.21.21,0,0,0-.11-.26.29.29,0,0,0-.16,0,.19.19,0,0,0-.1-.26.2.2,0,0,0-.22,0,.13.13,0,0,0,0-.06.2.2,0,0,0-.11-.25.19.19,0,0,0-.25.1.19.19,0,0,0,.1.26.2.2,0,0,0,.21,0l0,0a.21.21,0,0,0,.1.27.26.26,0,0,0,.15,0,.22.22,0,0,0,.11.28h.12a.22.22,0,0,0,.11.27.18.18,0,0,0,.1,0,.22.22,0,0,0,.11.26l.08,0a.25.25,0,0,0,.11.26l.07,0a.22.22,0,0,0,.11.26l0,0a.26.26,0,0,0,.11.27l0,0a.25.25,0,0,0,.11.27h0a.27.27,0,0,0,.09.29h0a.28.28,0,0,0,.08.29h0a.27.27,0,0,0,.08.29.28.28,0,0,0,.06.3.3.3,0,0,0,.05.3.29.29,0,0,0,0,.31.31.31,0,0,0,0,.31l0,.08a.27.27,0,0,0-.06-.12,9.34,9.34,0,0,0-.13-.65.34.34,0,0,0-.09-.32.32.32,0,0,0-.11-.31.28.28,0,0,0-.12-.3.26.26,0,0,0-.13-.29.28.28,0,0,0-.15-.29h0A.26.26,0,0,0,65,151v0a.25.25,0,0,0-.19-.26v0a.25.25,0,0,0-.21-.25v0a.24.24,0,0,0-.22-.23s0,0,0,0a.24.24,0,0,0-.25-.22.13.13,0,0,0,0-.06.24.24,0,0,0-.25-.2h0a.15.15,0,0,0,0-.07.22.22,0,0,0-.25-.18h0a.14.14,0,0,0,0-.09.21.21,0,0,0-.24-.17l-.06,0a.22.22,0,0,0,0-.12.22.22,0,0,0-.25-.15.21.21,0,0,0,.09.4l.05,0a.17.17,0,0,0,0,.12.22.22,0,0,0,.25.17h0a.28.28,0,0,0,0,.09.22.22,0,0,0,.24.19s0,0,0,.07a.24.24,0,0,0,.23.19s0,0,0,.06a.24.24,0,0,0,.21.22s0,0,0,0a.27.27,0,0,0,.2.23,0,0,0,0,0,0,0,.26.26,0,0,0,.17.24v0a.24.24,0,0,0,.15.25h0a.29.29,0,0,0,.14.27.28.28,0,0,0,.12.28A.27.27,0,0,0,65,152a.28.28,0,0,0,.09.28.33.33,0,0,0,.08.3.29.29,0,0,0,.07.29.3.3,0,0,0,0,.3.27.27,0,0,0,0,.3.33.33,0,0,0,0,.32.28.28,0,0,0,0,.18v.2a6.28,6.28,0,0,1-12.56,0c0-4,3.37-6,6.94-8.05l.13-.07c3.79-2.19,8.09-4.68,8.09-10.21a8.88,8.88,0,1,0-17.75,0v.2a.56.56,0,0,0,0,.16.31.31,0,0,0,0,.21.28.28,0,0,0,0,.22.31.31,0,0,0,0,.25.3.3,0,0,0,0,.26.29.29,0,0,0,.06.28.26.26,0,0,0,.06.29.28.28,0,0,0,.08.31.25.25,0,0,0,.09.31.26.26,0,0,0,.11.32h0a.23.23,0,0,0,.13.32s0,0,0,0a.23.23,0,0,0,.15.3h0l0,0a.23.23,0,0,0,.17.28h0a.21.21,0,0,0,0,.07.22.22,0,0,0,.17.27h.07a.14.14,0,0,0,0,.11.22.22,0,0,0,.19.24.21.21,0,0,0,.23-.19.21.21,0,0,0-.18-.24h0a.17.17,0,0,0,.06-.1.23.23,0,0,0-.18-.26h0l0-.07a.23.23,0,0,0-.16-.28l0-.05a.24.24,0,0,0-.13-.29s0,0,0,0a.25.25,0,0,0-.1-.31h0a.25.25,0,0,0-.07-.31.27.27,0,0,0-.06-.31.28.28,0,0,0-.05-.29.26.26,0,0,0,0-.28,55.21,55.21,0,0,0,0-.51.33.33,0,0,0,0-.24,0,0,0,0,0,0,0,.24.24,0,0,0,.06.11.35.35,0,0,0,0,.38.32.32,0,0,0,0,.36h0a.29.29,0,0,0,.06.35h0a.28.28,0,0,0,.07.33h0a.27.27,0,0,0,.08.32s0,0,0,0a.27.27,0,0,0,.09.31l0,0a.25.25,0,0,0,.09.3l0,0a.25.25,0,0,0,.09.29l.06,0a.26.26,0,0,0,.1.28l.08,0a.21.21,0,0,0,.1.27.16.16,0,0,0,.09,0,.23.23,0,0,0,.11.27.16.16,0,0,0,.1,0,.22.22,0,0,0,.11.27.25.25,0,0,0,.12,0,.21.21,0,0,0,.11.26.22.22,0,0,0,.14,0,.2.2,0,0,0,.1.27.19.19,0,0,0,.18,0l0,0a.2.2,0,0,0,.1.26.21.21,0,0,0,.27-.1.2.2,0,0,0-.1-.26.2.2,0,0,0-.17,0l0,0a.21.21,0,0,0-.1-.27.2.2,0,0,0-.13,0,.23.23,0,0,0-.11-.29.17.17,0,0,0-.1,0,.22.22,0,0,0-.11-.28.13.13,0,0,0-.08,0,.23.23,0,0,0-.11-.27l-.07,0a.23.23,0,0,0-.1-.28l-.06,0a.24.24,0,0,0-.1-.29l0,0a.24.24,0,0,0-.09-.29h0a.27.27,0,0,0-.09-.31h0a.3.3,0,0,0-.08-.32h0a.29.29,0,0,0-.07-.32.31.31,0,0,0-.07-.33.29.29,0,0,0-.05-.33.32.32,0,0,0,0-.35.29.29,0,0,0,0-.16l0,.1h0a.33.33,0,0,0,0,.33h0a.31.31,0,0,0,.06.32h0a.3.3,0,0,0,.07.3l0,0a.27.27,0,0,0,.08.29l0,0a.27.27,0,0,0,.09.28l0,0a.26.26,0,0,0,.09.28l0,0a.26.26,0,0,0,.11.27s0,0,.05,0a.25.25,0,0,0,.11.26s0,0,.07,0a.23.23,0,0,0,.11.25.11.11,0,0,0,.08,0,.23.23,0,0,0,.11.25.19.19,0,0,0,.1,0,.22.22,0,0,0,.12.25.23.23,0,0,0,.12,0,.2.2,0,0,0,.11.25.17.17,0,0,0,.14,0,.22.22,0,0,0,.11.26.22.22,0,0,0,.16,0,.21.21,0,0,0,.1.27.22.22,0,0,0,.22,0l0,0a.19.19,0,0,0,.1.25.19.19,0,1,0,.15-.35.18.18,0,0,0-.2,0l0-.05a.2.2,0,0,0-.1-.27.19.19,0,0,0-.15,0,.21.21,0,0,0-.1-.28.2.2,0,0,0-.13,0,.21.21,0,0,0-.11-.27.16.16,0,0,0-.1,0,.23.23,0,0,0-.11-.27l-.08,0a.23.23,0,0,0-.11-.26l-.06,0a.26.26,0,0,0-.11-.27l0,0a.25.25,0,0,0-.11-.27h0a.28.28,0,0,0-.1-.28s0,0,0,0a.28.28,0,0,0-.1-.28h0a.28.28,0,0,0-.09-.29h0a.26.26,0,0,0-.07-.29,9.46,9.46,0,0,1-.11-.6.34.34,0,0,0,0-.31.33.33,0,0,0,0-.32.11.11,0,0,0,0-.07.75.75,0,0,0,.07.12.35.35,0,0,0,0,.33.34.34,0,0,0,.08.32,3.05,3.05,0,0,0,.19.62.31.31,0,0,0,.12.31.28.28,0,0,0,.13.29.28.28,0,0,0,.16.29h0a.27.27,0,0,0,.18.28h0a.27.27,0,0,0,.19.27v0a.24.24,0,0,0,.2.25v0a.24.24,0,0,0,.22.24v0a.24.24,0,0,0,.24.22s0,0,0,.05a.23.23,0,0,0,.26.2h0s0,.05,0,.07a.23.23,0,0,0,.25.19h0a.27.27,0,0,0,0,.09.22.22,0,0,0,.25.17l0,0a.25.25,0,0,0,0,.12.2.2,0,1,0,.39-.09.2.2,0,0,0-.24-.15l0,0a.25.25,0,0,0,0-.12.2.2,0,0,0-.24-.17h0a.33.33,0,0,0,0-.1.22.22,0,0,0-.24-.18.17.17,0,0,0,0-.07.24.24,0,0,0-.23-.2.09.09,0,0,0,0-.05.24.24,0,0,0-.21-.22v0a.24.24,0,0,0-.19-.23v0a.24.24,0,0,0-.17-.24s0,0,0,0a.29.29,0,0,0-.16-.26h0a.25.25,0,0,0-.14-.27,9.91,9.91,0,0,1-.23-.56,9.52,9.52,0,0,1-.17-.58.31.31,0,0,0-.06-.29.35.35,0,0,0,0-.3,9.8,9.8,0,0,1-.07-.62.3.3,0,0,0,0-.18v-.2a6.28,6.28,0,0,1,12.56,0c0,4-3.16,5.85-6.82,8l-.08,0c-3.87,2.24-8.25,4.78-8.25,10.32a8.88,8.88,0,1,0,17.75,0V154h0a.41.41,0,0,0,0-.16M51.41,136.38l0,0,0-.08s0,0,0,.05,0,0,0,.08m15.16,17.33,0,0a.25.25,0,0,0,0,.07.08.08,0,0,0,0,0,.13.13,0,0,0,0-.08m.62.08,0,0a.29.29,0,0,0,0-.1s0,0,0,0a.3.3,0,0,0,0,.13m-1.25.06a.3.3,0,0,0,0-.08s0,0,0-.05a.32.32,0,0,0,0,.09v0M50.8,136.3l0,0a.36.36,0,0,0,0,.11v0a.69.69,0,0,0,0-.13m1.25-.06,0,.07a.43.43,0,0,1,0,.05l0-.08s0,0,0,0M66.6,153.4a.22.22,0,0,0,0,.11l0-.07h0a.27.27,0,0,0,0-.12l0,.08M51.39,136.69a.25.25,0,0,0,0-.11l0,.06h0a.31.31,0,0,0,0,.13.35.35,0,0,0,0-.08" transform="translate(.25 .25)"/><path class="prefix__prefix__i" d="M66.28,149.76a.21.21,0,0,0,.22-.2.2.2,0,0,0-.2-.21.19.19,0,0,0-.21.19.2.2,0,0,0,.19.22" transform="translate(.25 .25)"/><path class="prefix__prefix__i" d="M66.06 149.39a.2.2 0 0 0 0-.4.21.21 0 0 0-.19.21.2.2 0 0 0 .2.19M65.82 149a.18.18 0 0 0 .16-.21.17.17 0 0 0-.2-.16.18.18 0 0 0-.17.2.19.19 0 0 0 .21.17M65.54 148.63a.18.18 0 0 0 .14-.21.18.18 0 0 0-.21-.14.19.19 0 0 0-.15.21.18.18 0 0 0 .22.14M65.13 147.92a.18.18 0 0 0-.12.21.17.17 0 0 0 .21.12.17.17 0 1 0-.09-.33M64.88 147.87a.17.17 0 0 0 .1-.21.17.17 0 0 0-.22-.1.17.17 0 0 0 .12.31M64.5 147.49a.16.16 0 0 0-.14-.28.15.15 0 0 0-.07.21.16.16 0 0 0 .21.07M64.08 147.11a.15.15 0 0 0 0-.21.15.15 0 0 0-.2-.05.15.15 0 0 0 0 .21.15.15 0 0 0 .2.05M63.45 146.5a.14.14 0 0 0 0 .2.14.14 0 0 0 .2 0 .15.15 0 0 0 0-.2.17.17 0 0 0-.21 0M63 146.16a.13.13 0 1 0 .18.2.14.14 0 0 0 0-.2.14.14 0 0 0-.19 0M62.6 146a.13.13 0 0 0-.2-.17.12.12 0 0 0 0 .18.13.13 0 0 0 .19 0M62 145.63a.13.13 0 1 0-.21-.14.12.12 0 0 0 0 .17.13.13 0 0 0 .18 0M64.5 148.69a.19.19 0 0 0 .25-.1.18.18 0 0 0-.09-.25.19.19 0 0 0-.25.1.19.19 0 0 0 .09.25M64.21 148.4a.18.18 0 0 0 .24-.09.18.18 0 1 0-.33-.15.18.18 0 0 0 .09.24M63.9 148.11a.17.17 0 0 0 .23-.09.16.16 0 0 0-.09-.22.18.18 0 0 0-.23.08.17.17 0 0 0 .09.23M63.48 147.61a.15.15 0 0 0 .08.21.16.16 0 0 0 .22-.08.17.17 0 0 0-.08-.22.17.17 0 0 0-.22.09M63.34 147.25a.16.16 0 0 0-.21.08.16.16 0 1 0 .29.13.16.16 0 0 0-.08-.21M62.76 147.05a.16.16 0 0 0 .07.2.16.16 0 0 0 .2-.07A.15.15 0 0 0 63 147a.15.15 0 0 0-.21.07M62.43 147a.15.15 0 1 0-.06-.2.15.15 0 0 0 .06.2M62.2 146.62a.14.14 0 1 0-.24-.14.13.13 0 0 0 0 .18.14.14 0 0 0 .19 0M61.75 146.33a.13.13 0 1 0-.18 0 .13.13 0 0 0 .18 0M61.28 146a.12.12 0 0 0 0-.17.13.13 0 0 0-.18 0 .12.12 0 0 0 0 .17.13.13 0 0 0 .18 0M63.56 148.81a.19.19 0 0 0 .25-.11.19.19 0 0 0-.1-.24.19.19 0 0 0-.15.35M63.25 148.52a.17.17 0 0 0 .23-.09.18.18 0 1 0-.33-.14.18.18 0 0 0 .1.23M63.13 148.15a.17.17 0 0 0-.09-.23.17.17 0 0 0-.22.1.16.16 0 0 0 .09.22.17.17 0 0 0 .22-.09M62.68 147.65a.18.18 0 0 0-.22.09.17.17 0 0 0 .09.21.15.15 0 0 0 .21-.09.16.16 0 0 0-.08-.21M62.29 147.38a.15.15 0 0 0-.2.08.15.15 0 1 0 .28.12.15.15 0 0 0-.08-.2M61.69 147.18a.15.15 0 0 0 .07.19.15.15 0 0 0 .2-.07.14.14 0 0 0-.08-.19.14.14 0 0 0-.19.07M61.33 147.08a.14.14 0 0 0 .19-.07.14.14 0 0 0-.25-.12.14.14 0 0 0 .06.19M61.06 146.73a.13.13 0 1 0-.23-.12.12.12 0 0 0 .05.17.13.13 0 0 0 .18-.05M60.53 146.27a.12.12 0 0 0-.17 0 .13.13 0 0 0 0 .17.12.12 0 0 0 .17 0 .13.13 0 0 0 0-.17M62.86 149a.2.2 0 0 0 .14-.24.21.21 0 0 0-.24-.14.19.19 0 0 0-.14.24.19.19 0 0 0 .24.14" transform="translate(.25 .25)"/><path class="prefix__prefix__i" d="M62.54 148.78a.2.2 0 0 0 .13-.24.19.19 0 0 0-.23-.12.19.19 0 0 0-.13.23.2.2 0 0 0 .23.13M62.21 148.51a.17.17 0 0 0 .12-.22.19.19 0 0 0-.23-.12.18.18 0 0 0-.11.23.18.18 0 0 0 .22.11M61.86 148.25A.16.16 0 0 0 62 148a.16.16 0 0 0-.21-.1.17.17 0 0 0 .11.32M61.49 148a.16.16 0 0 0 .09-.21.16.16 0 0 0-.2-.09.16.16 0 0 0-.1.21.17.17 0 0 0 .21.09M61.1 147.72a.15.15 0 0 0 .08-.2.14.14 0 0 0-.2-.08.15.15 0 0 0-.08.19.16.16 0 0 0 .2.09M60.69 147.45a.15.15 0 0 0 .07-.19.14.14 0 0 0-.19-.07.14.14 0 0 0-.07.18.14.14 0 0 0 .19.08M60.14 146.94a.14.14 0 0 0-.07.18.14.14 0 0 0 .18.06.13.13 0 0 0 .07-.17.14.14 0 0 0-.18-.07M59.69 146.69a.12.12 0 0 0-.06.16.14.14 0 0 0 .17.07.13.13 0 0 0 .06-.17.12.12 0 0 0-.17-.06" transform="translate(.25 .25)"/></svg>